<svg xmlns="http://www.w3.org/2000/svg" xmlns:xlink="http://www.w3.org/1999/xlink" contentStyleType="text/css" data-diagram-type="DESCRIPTION" height="1138px" preserveAspectRatio="none" style="width:1750px;height:1138px;background:#FFFFFF;" version="1.1" viewBox="0 0 1750 1138" width="1750px" zoomAndPan="magnify"><title>C2 &#8212; Diagramme de containers &#183; CourtierIA</title><defs/><g><g class="title" data-source-line="1"><text fill="#000000" font-family="Helvetica" font-size="14" font-weight="bold" lengthAdjust="spacing" textLength="290.9648" x="722.5176" y="24.7803">C2 &#8212; Diagramme de containers &#183; CourtierIA</text><text fill="#000000" font-family="Helvetica" font-size="14" font-weight="bold" lengthAdjust="spacing" textLength="490.1299" x="622.9351" y="38.7803">Plein = MVP (Phase 1) &#183; Pointill&#233; = Phase 2 (ajouts identifi&#233;s en validation)</text></g><!--cluster Frontend--><g class="cluster" data-entity="Frontend" data-source-line="50" data-uid="ent0003" id="cluster_Frontend"><path d="M97,151 L150.9902,151 A9,9 0 0 1 156.9902,157 L163.9902,177 L437,177 A6,6 0 0 1 443,183 L443,276 A6,6 0 0 1 437,282 L97,282 A6,6 0 0 1 91,276 L91,157 A6,6 0 0 1 97,151" fill="none" style="stroke:#000000;stroke-width:1.5;"/><line style="stroke:#000000;stroke-width:1.5;" x1="91" x2="163.9902" y1="177" y2="177"/><text fill="#000000" font-family="Helvetica" font-size="12" font-weight="bold" lengthAdjust="spacing" textLength="51.9902" x="99" y="166.2402">Frontend</text></g><!--cluster Edge & Auth--><g class="cluster" data-entity="Edge . Auth" data-source-line="55" data-uid="ent0006" id="cluster_Edge . Auth"><path d="M145,334 L218.9941,334 A9,9 0 0 1 224.9941,340 L231.9941,360 L335,360 A6,6 0 0 1 341,366 L341,616 A6,6 0 0 1 335,622 L145,622 A6,6 0 0 1 139,616 L139,340 A6,6 0 0 1 145,334" fill="none" style="stroke:#000000;stroke-width:1.5;"/><line style="stroke:#000000;stroke-width:1.5;" x1="139" x2="231.9941" y1="360" y2="360"/><text fill="#000000" font-family="Helvetica" font-size="12" font-weight="bold" lengthAdjust="spacing" textLength="71.9941" x="147" y="349.2402">Edge &amp; Auth</text></g><!--cluster Couche IA & RAG--><g class="cluster" data-entity="Couche IA . RAG" data-source-line="60" data-uid="ent0009" id="cluster_Couche IA . RAG"><path d="M894,503 L997.3379,503 A9,9 0 0 1 1003.3379,509 L1010.3379,529 L1414,529 A6,6 0 0 1 1420,535 L1420,787 A6,6 0 0 1 1414,793 L894,793 A6,6 0 0 1 888,787 L888,509 A6,6 0 0 1 894,503" fill="none" style="stroke:#000000;stroke-width:1.5;"/><line style="stroke:#000000;stroke-width:1.5;" x1="888" x2="1010.3379" y1="529" y2="529"/><text fill="#000000" font-family="Helvetica" font-size="12" font-weight="bold" lengthAdjust="spacing" textLength="101.3379" x="896" y="518.2402">Couche IA &amp; RAG</text></g><!--cluster Stockage--><g class="cluster" data-entity="Stockage" data-source-line="68" data-uid="ent0015" id="cluster_Stockage"><path d="M1031,991 L1086.3555,991 A9,9 0 0 1 1092.3555,997 L1099.3555,1017 L1737,1017 A6,6 0 0 1 1743,1023 L1743,1125 A6,6 0 0 1 1737,1131 L1031,1131 A6,6 0 0 1 1025,1125 L1025,997 A6,6 0 0 1 1031,991" fill="none" style="stroke:#000000;stroke-width:1.5;"/><line style="stroke:#000000;stroke-width:1.5;" x1="1025" x2="1099.3555" y1="1017" y2="1017"/><text fill="#000000" font-family="Helvetica" font-size="12" font-weight="bold" lengthAdjust="spacing" textLength="53.3555" x="1033" y="1006.2402">Stockage</text></g><!--cluster Asynchrone & Ops--><g class="cluster" data-entity="Asynchrone . Ops" data-source-line="75" data-uid="ent0020" id="cluster_Asynchrone . Ops"><path d="M12,674 L122.0234,674 A9,9 0 0 1 128.0234,680 L135.0234,700 L858,700 A6,6 0 0 1 864,706 L864,933 A6,6 0 0 1 858,939 L12,939 A6,6 0 0 1 6,933 L6,680 A6,6 0 0 1 12,674" fill="none" style="stroke:#000000;stroke-width:1.5;"/><line style="stroke:#000000;stroke-width:1.5;" x1="6" x2="135.0234" y1="700" y2="700"/><text fill="#000000" font-family="Helvetica" font-size="12" font-weight="bold" lengthAdjust="spacing" textLength="108.0234" x="14" y="689.2402">Asynchrone &amp; Ops</text></g><!--entity web--><g class="entity" data-entity="web" data-source-line="51" data-uid="ent0004" id="entity_web"><rect fill="#FFFFFF" height="64" rx="6" ry="6" style="stroke:#1F2A37;stroke-width:0.5;" width="152.7227" x="106.64" y="196"/><text fill="#1F2A37" font-family="Helvetica" font-size="12" font-weight="bold" lengthAdjust="spacing" textLength="51.9902" x="120.64" y="219.2402">App Web</text><text fill="#1F2A37" font-family="Helvetica" font-size="12" lengthAdjust="spacing" textLength="102.375" x="120.64" y="231.2402">React + TypeScript</text><text fill="#1F2A37" font-family="Helvetica" font-size="12" lengthAdjust="spacing" textLength="124.7227" x="120.64" y="243.2402">Dashboard, formulaires</text></g><!--entity mobile--><g class="entity" data-entity="mobile" data-source-line="52" data-uid="ent0005" id="entity_mobile"><rect fill="#F0FDFA" height="76" rx="6" ry="6" style="stroke:#2DD4BF;stroke-width:0.5;stroke-dasharray:7,7;" width="132.7305" x="294.63" y="190"/><text fill="#0F766E" font-family="Helvetica" font-size="12" font-weight="bold" lengthAdjust="spacing" textLength="64.6582" x="308.63" y="213.2402">App Mobile</text><text fill="#0F766E" font-family="Helvetica" font-size="12" lengthAdjust="spacing" textLength="68.0039" x="308.63" y="225.2402">Flutter (Dart)</text><text fill="#0F766E" font-family="Helvetica" font-size="12" lengthAdjust="spacing" textLength="75.041" x="308.63" y="237.2402">iOS + Android</text><text fill="#0F766E" font-family="Helvetica" font-size="12" lengthAdjust="spacing" textLength="104.7305" x="308.63" y="249.2402">[Phase 3 &#8212; d&#233;cal&#233;]</text></g><!--entity api--><g class="entity" data-entity="api" data-source-line="56" data-uid="ent0007" id="entity_api"><rect fill="#FFFFFF" height="64" rx="6" ry="6" style="stroke:#1F2A37;stroke-width:0.5;" width="169.3867" x="155.31" y="373"/><text fill="#1F2A37" font-family="Helvetica" font-size="12" font-weight="bold" lengthAdjust="spacing" textLength="72.6973" x="169.31" y="396.2402">API Gateway</text><text fill="#1F2A37" font-family="Helvetica" font-size="12" lengthAdjust="spacing" textLength="116.7305" x="169.31" y="408.2402">FastAPI &#183; Python 3.12</text><text fill="#1F2A37" font-family="Helvetica" font-size="12" lengthAdjust="spacing" textLength="141.3867" x="169.31" y="420.2402">AuthN, rate-limit, OpenAPI</text></g><!--entity auth--><g class="entity" data-entity="auth" data-source-line="57" data-uid="ent0008" id="entity_auth"><rect fill="#FFFFFF" height="64" rx="6" ry="6" style="stroke:#1F2A37;stroke-width:0.5;" width="144.0391" x="154.98" y="542"/><text fill="#1F2A37" font-family="Helvetica" font-size="12" font-weight="bold" lengthAdjust="spacing" textLength="73.3594" x="168.98" y="565.2402">Auth Service</text><text fill="#1F2A37" font-family="Helvetica" font-size="12" lengthAdjust="spacing" textLength="116.0391" x="168.98" y="577.2402">GCP Identity Platform</text><text fill="#1F2A37" font-family="Helvetica" font-size="12" lengthAdjust="spacing" textLength="111.0117" x="168.98" y="589.2402">OIDC + MFA OACIQ</text></g><!--entity rag--><g class="entity" data-entity="rag" data-source-line="61" data-uid="ent0010" id="entity_rag"><rect fill="#FFFFFF" height="64" rx="6" ry="6" style="stroke:#1F2A37;stroke-width:0.5;" width="174.4023" x="1102.8" y="542"/><text fill="#1F2A37" font-family="Helvetica" font-size="12" font-weight="bold" lengthAdjust="spacing" textLength="70.002" x="1116.8" y="565.2402">RAG Engine</text><text fill="#1F2A37" font-family="Helvetica" font-size="12" lengthAdjust="spacing" textLength="146.4023" x="1116.8" y="577.2402">Orchestrateur retrieval+gen</text><text fill="#1F2A37" font-family="Helvetica" font-size="12" lengthAdjust="spacing" textLength="81.375" x="1116.8" y="589.2402">(d&#233;taill&#233; en C3)</text></g><!--entity router--><g class="entity" data-entity="router" data-source-line="62" data-uid="ent0011" id="entity_router"><rect fill="#F0FDFA" height="64" rx="6" ry="6" style="stroke:#2DD4BF;stroke-width:0.5;stroke-dasharray:7,7;" width="156.3729" x="903.81" y="713"/><text fill="#0F766E" font-family="Helvetica" font-size="12" font-weight="bold" lengthAdjust="spacing" textLength="66.6563" x="917.81" y="736.2402">LLM Router</text><text fill="#0F766E" font-family="Helvetica" font-size="12" lengthAdjust="spacing" textLength="93.375" x="917.81" y="748.2402">LiteLLM / Portkey</text><text fill="#0F766E" font-family="Helvetica" font-size="12" lengthAdjust="spacing" textLength="128.3729" x="917.81" y="760.2402">Fallback Claude &#8596; GPT</text></g><!--entity pii--><g class="entity" data-entity="pii" data-source-line="63" data-uid="ent0012" id="entity_pii"><rect fill="#F0FDFA" height="64" rx="6" ry="6" style="stroke:#2DD4BF;stroke-width:0.5;stroke-dasharray:7,7;" width="139.0469" x="1095.48" y="713"/><text fill="#0F766E" font-family="Helvetica" font-size="12" font-weight="bold" lengthAdjust="spacing" textLength="76.0137" x="1109.48" y="736.2402">PII Redaction</text><text fill="#0F766E" font-family="Helvetica" font-size="12" lengthAdjust="spacing" textLength="111.0469" x="1109.48" y="748.2402">Presidio + r&#232;gles QC</text><text fill="#0F766E" font-family="Helvetica" font-size="12" lengthAdjust="spacing" textLength="70.0488" x="1109.48" y="760.2402">Loi 25 art. 12</text></g><!--entity prompts--><g class="entity" data-entity="prompts" data-source-line="64" data-uid="ent0013" id="entity_prompts"><rect fill="#F0FDFA" height="64" rx="6" ry="6" style="stroke:#2DD4BF;stroke-width:0.5;stroke-dasharray:7,7;" width="134.043" x="1269.98" y="713"/><text fill="#0F766E" font-family="Helvetica" font-size="12" font-weight="bold" lengthAdjust="spacing" textLength="93.3516" x="1283.98" y="736.2402">Prompt Registry</text><text fill="#0F766E" font-family="Helvetica" font-size="12" lengthAdjust="spacing" textLength="106.043" x="1283.98" y="748.2402">Prompts versionn&#233;s</text><text fill="#0F766E" font-family="Helvetica" font-size="12" lengthAdjust="spacing" textLength="58.0254" x="1283.98" y="760.2402">Git-backed</text></g><!--entity ingest--><g class="entity" data-entity="ingest" data-source-line="65" data-uid="ent0014" id="entity_ingest"><rect fill="#FFFFFF" height="64" rx="6" ry="6" style="stroke:#1F2A37;stroke-width:0.5;" width="164.043" x="903.98" y="542"/><text fill="#1F2A37" font-family="Helvetica" font-size="12" font-weight="bold" lengthAdjust="spacing" textLength="115.3359" x="917.98" y="565.2402">Document Ingestion</text><text fill="#1F2A37" font-family="Helvetica" font-size="12" lengthAdjust="spacing" textLength="136.043" x="917.98" y="577.2402">OACIQ + Centris + SCHL</text><text fill="#1F2A37" font-family="Helvetica" font-size="12" lengthAdjust="spacing" textLength="124.0723" x="917.98" y="589.2402">Incr&#233;mental, scheduled</text></g><!--entity pg--><g class="entity" data-entity="pg" data-source-line="69" data-uid="ent0016" id="entity_pg"><path d="M1393.8,1046 C1393.8,1036 1470.0031,1036 1470.0031,1036 C1470.0031,1036 1546.2063,1036 1546.2063,1046 L1546.2063,1099 C1546.2063,1109 1470.0031,1109 1470.0031,1109 C1470.0031,1109 1393.8,1109 1393.8,1099 L1393.8,1046" fill="#FFFFFF" style="stroke:#1F2A37;stroke-width:0.5;"/><path d="M1393.8,1046 C1393.8,1056 1470.0031,1056 1470.0031,1056 C1470.0031,1056 1546.2063,1056 1546.2063,1046" fill="none" style="stroke:#1F2A37;stroke-width:0.5;"/><text fill="#1F2A37" font-family="Helvetica" font-size="12" font-weight="bold" lengthAdjust="spacing" textLength="86.0273" x="1407.8" y="1073.2402">PostgreSQL 16</text><text fill="#1F2A37" font-family="Helvetica" font-size="12" lengthAdjust="spacing" textLength="108.7207" x="1407.8" y="1085.2402">Cloud SQL Montr&#233;al</text><text fill="#1F2A37" font-family="Helvetica" font-size="12" lengthAdjust="spacing" textLength="124.4063" x="1407.8" y="1097.2402">Donn&#233;es m&#233;tier + audit</text></g><!--entity vector--><g class="entity" data-entity="vector" data-source-line="70" data-uid="ent0017" id="entity_vector"><path d="M1215.63,1040 C1215.63,1030 1286.9991,1030 1286.9991,1030 C1286.9991,1030 1358.3683,1030 1358.3683,1040 L1358.3683,1105 C1358.3683,1115 1286.9991,1115 1286.9991,1115 C1286.9991,1115 1215.63,1115 1215.63,1105 L1215.63,1040" fill="#FFFFFF" style="stroke:#1F2A37;stroke-width:0.5;"/><path d="M1215.63,1040 C1215.63,1050 1286.9991,1050 1286.9991,1050 C1286.9991,1050 1358.3683,1050 1358.3683,1040" fill="none" style="stroke:#1F2A37;stroke-width:0.5;"/><text fill="#1F2A37" font-family="Helvetica" font-size="12" font-weight="bold" lengthAdjust="spacing" textLength="50.6777" x="1229.63" y="1067.2402">pgvector</text><text fill="#1F2A37" font-family="Helvetica" font-size="12" lengthAdjust="spacing" textLength="108.7207" x="1229.63" y="1079.2402">Cloud SQL Montr&#233;al</text><text fill="#1F2A37" font-family="Helvetica" font-size="12" lengthAdjust="spacing" textLength="96.0469" x="1229.63" y="1091.2402">Embeddings RAG</text><text fill="#1F2A37" font-family="Helvetica" font-size="12" lengthAdjust="spacing" textLength="114.7383" x="1229.63" y="1103.2402">(Souverainet&#233; Loi 25)</text></g><!--entity redis--><g class="entity" data-entity="redis" data-source-line="71" data-uid="ent0018" id="entity_redis"><path d="M1581.14,1046 C1581.14,1036 1654.0033,1036 1654.0033,1036 C1654.0033,1036 1726.8666,1036 1726.8666,1046 L1726.8666,1099 C1726.8666,1109 1654.0033,1109 1654.0033,1109 C1654.0033,1109 1581.14,1109 1581.14,1099 L1581.14,1046" fill="#F0FDFA" style="stroke:#2DD4BF;stroke-width:0.5;stroke-dasharray:7,7;"/><path d="M1581.14,1046 C1581.14,1056 1654.0033,1056 1654.0033,1056 C1654.0033,1056 1726.8666,1056 1726.8666,1046" fill="none" style="stroke:#2DD4BF;stroke-width:0.5;stroke-dasharray:7,7;"/><text fill="#0F766E" font-family="Helvetica" font-size="12" font-weight="bold" lengthAdjust="spacing" textLength="72.0293" x="1595.14" y="1073.2402">Redis Cache</text><text fill="#0F766E" font-family="Helvetica" font-size="12" lengthAdjust="spacing" textLength="72.0176" x="1595.14" y="1085.2402">MemoryStore</text><text fill="#0F766E" font-family="Helvetica" font-size="12" lengthAdjust="spacing" textLength="117.7266" x="1595.14" y="1097.2402">Session + RAG cache</text></g><!--entity gcs--><g class="entity" data-entity="gcs" data-source-line="72" data-uid="ent0019" id="entity_gcs"><path d="M1040.98,1046 C1040.98,1036 1111.0044,1036 1111.0044,1036 C1111.0044,1036 1181.0288,1036 1181.0288,1046 L1181.0288,1099 C1181.0288,1109 1111.0044,1109 1111.0044,1109 C1111.0044,1109 1040.98,1109 1040.98,1099 L1040.98,1046" fill="#FFFFFF" style="stroke:#1F2A37;stroke-width:0.5;"/><path d="M1040.98,1046 C1040.98,1056 1111.0044,1056 1111.0044,1056 C1111.0044,1056 1181.0288,1056 1181.0288,1046" fill="none" style="stroke:#1F2A37;stroke-width:0.5;"/><text fill="#1F2A37" font-family="Helvetica" font-size="12" font-weight="bold" lengthAdjust="spacing" textLength="85.3535" x="1054.98" y="1073.2402">Object Storage</text><text fill="#1F2A37" font-family="Helvetica" font-size="12" lengthAdjust="spacing" textLength="76.0254" x="1054.98" y="1085.2402">GCS Montr&#233;al</text><text fill="#1F2A37" font-family="Helvetica" font-size="12" lengthAdjust="spacing" textLength="112.0488" x="1054.98" y="1097.2402">PDFs, audio, exports</text></g><!--entity pubsub--><g class="entity" data-entity="pubsub" data-source-line="76" data-uid="ent0021" id="entity_pubsub"><rect fill="#F0FDFA" height="64" rx="6" ry="6" style="stroke:#2DD4BF;stroke-width:0.5;stroke-dasharray:7,7;" width="112.3926" x="375.8" y="713"/><text fill="#0F766E" font-family="Helvetica" font-size="12" font-weight="bold" lengthAdjust="spacing" textLength="48.6621" x="389.8" y="736.2402">Pub/Sub</text><text fill="#0F766E" font-family="Helvetica" font-size="12" lengthAdjust="spacing" textLength="80.7246" x="389.8" y="748.2402">Cloud Pub/Sub</text><text fill="#0F766E" font-family="Helvetica" font-size="12" lengthAdjust="spacing" textLength="84.3926" x="389.8" y="760.2402">Ingestion + jobs</text></g><!--entity workers--><g class="entity" data-entity="workers" data-source-line="77" data-uid="ent0022" id="entity_workers"><rect fill="#F0FDFA" height="64" rx="6" ry="6" style="stroke:#2DD4BF;stroke-width:0.5;stroke-dasharray:7,7;" width="148.7324" x="699.63" y="859"/><text fill="#0F766E" font-family="Helvetica" font-size="12" font-weight="bold" lengthAdjust="spacing" textLength="70.6758" x="713.63" y="882.2402">Worker Pool</text><text fill="#0F766E" font-family="Helvetica" font-size="12" lengthAdjust="spacing" textLength="82.0488" x="713.63" y="894.2402">Cloud Run jobs</text><text fill="#0F766E" font-family="Helvetica" font-size="12" lengthAdjust="spacing" textLength="120.7324" x="713.63" y="906.2402">Ingestion, transcription</text></g><!--entity audit--><g class="entity" data-entity="audit" data-source-line="78" data-uid="ent0023" id="entity_audit"><rect fill="#F0FDFA" height="64" rx="6" ry="6" style="stroke:#2DD4BF;stroke-width:0.5;stroke-dasharray:7,7;" width="134.7402" x="713.63" y="713"/><text fill="#0F766E" font-family="Helvetica" font-size="12" font-weight="bold" lengthAdjust="spacing" textLength="102.0176" x="727.63" y="736.2402">Audit Log Service</text><text fill="#0F766E" font-family="Helvetica" font-size="12" lengthAdjust="spacing" textLength="106.7402" x="727.63" y="748.2402">Append-only &#183; 7 ans</text><text fill="#0F766E" font-family="Helvetica" font-size="12" lengthAdjust="spacing" textLength="85.043" x="727.63" y="760.2402">Loi 25 + OACIQ</text></g><!--entity obs--><g class="entity" data-entity="obs" data-source-line="79" data-uid="ent0024" id="entity_obs"><rect fill="#F0FDFA" height="64" rx="6" ry="6" style="stroke:#2DD4BF;stroke-width:0.5;stroke-dasharray:7,7;" width="155.3828" x="523.31" y="713"/><text fill="#0F766E" font-family="Helvetica" font-size="12" font-weight="bold" lengthAdjust="spacing" textLength="76.0313" x="537.31" y="736.2402">Observability</text><text fill="#0F766E" font-family="Helvetica" font-size="12" lengthAdjust="spacing" textLength="121.7344" x="537.31" y="748.2402">Prometheus + Grafana</text><text fill="#0F766E" font-family="Helvetica" font-size="12" lengthAdjust="spacing" textLength="127.3828" x="537.31" y="760.2402">OpenTelemetry &#183; Sentry</text></g><!--entity flags--><g class="entity" data-entity="flags" data-source-line="80" data-uid="ent0025" id="entity_flags"><rect fill="#F0FDFA" height="64" rx="6" ry="6" style="stroke:#2DD4BF;stroke-width:0.5;stroke-dasharray:7,7;" width="134.0605" x="206.97" y="713"/><text fill="#0F766E" font-family="Helvetica" font-size="12" font-weight="bold" lengthAdjust="spacing" textLength="78.0234" x="220.97" y="736.2402">Feature Flags</text><text fill="#0F766E" font-family="Helvetica" font-size="12" lengthAdjust="spacing" textLength="106.0605" x="220.97" y="748.2402">Unleash self-hosted</text><text fill="#0F766E" font-family="Helvetica" font-size="12" lengthAdjust="spacing" textLength="93.375" x="220.97" y="760.2402">Rollout progressif</text></g><!--entity hitl--><g class="entity" data-entity="hitl" data-source-line="81" data-uid="ent0026" id="entity_hitl"><rect fill="#F0FDFA" height="64" rx="6" ry="6" style="stroke:#2DD4BF;stroke-width:0.5;stroke-dasharray:7,7;" width="150.6777" x="21.66" y="713"/><text fill="#0F766E" font-family="Helvetica" font-size="12" font-weight="bold" lengthAdjust="spacing" textLength="122.6777" x="35.66" y="736.2402">HITL Approval Queue</text><text fill="#0F766E" font-family="Helvetica" font-size="12" lengthAdjust="spacing" textLength="102.0703" x="35.66" y="748.2402">Validation humaine</text><text fill="#0F766E" font-family="Helvetica" font-size="12" lengthAdjust="spacing" textLength="101.3555" x="35.66" y="760.2402">formulaires OACIQ</text></g><!--entity user--><g class="entity" data-entity="user" data-source-line="48" data-uid="ent0002" id="entity_user"><rect fill="#1F2A37" height="40" rx="6" ry="6" style="stroke:#1F2A37;stroke-width:0.5;" width="74.6699" x="233.67" y="64"/><text fill="#FFFFFF" font-family="Helvetica" font-size="12" font-weight="bold" lengthAdjust="spacing" textLength="46.6699" x="247.67" y="87.2402">Courtier</text></g><!--entity llm--><g class="entity" data-entity="llm" data-source-line="84" data-uid="ent0027" id="entity_llm"><rect fill="#F9FAFB" height="64" rx="6" ry="6" style="stroke:#9CA3AF;stroke-width:0.5;" width="131.3828" x="916.31" y="859"/><text fill="#6B7280" font-family="Helvetica" font-size="12" font-weight="bold" lengthAdjust="spacing" textLength="47.9941" x="930.31" y="882.2402">LLM API</text><text fill="#6B7280" font-family="Helvetica" font-size="12" lengthAdjust="spacing" textLength="103.3828" x="930.31" y="894.2402">Vertex AI Anthropic</text><text fill="#6B7280" font-family="Helvetica" font-size="12" lengthAdjust="spacing" textLength="89.3789" x="930.31" y="906.2402">r&#233;gion ca-central</text></g><!--entity src--><g class="entity" data-entity="src" data-source-line="85" data-uid="ent0028" id="entity_src"><rect fill="#F9FAFB" height="52" rx="6" ry="6" style="stroke:#9CA3AF;stroke-width:0.5;" width="121.3809" x="713.31" y="1046.5"/><text fill="#6B7280" font-family="Helvetica" font-size="12" font-weight="bold" lengthAdjust="spacing" textLength="90.6797" x="727.31" y="1069.7402">Centris / OACIQ</text><text fill="#6B7280" font-family="Helvetica" font-size="12" lengthAdjust="spacing" textLength="93.3809" x="727.31" y="1081.7402">Sources externes</text></g><!--link user to web--><g class="link" data-entity-1="user" data-entity-2="web" data-source-line="87" data-uid="lnk29" id="link_user_web"><path d="M258.95,104.45 C244.4,127.92 222.9107,162.6 205.6507,190.45" fill="none" id="user-to-web" style="stroke:#1F2A37;stroke-width:2;"/><polygon fill="#1F2A37" points="202.49,195.55,210.6311,190.0072,205.1239,191.3,203.8311,185.7929,202.49,195.55" style="stroke:#1F2A37;stroke-width:2;"/></g><!--link user to mobile--><g class="link" data-entity-1="user" data-entity-2="mobile" data-source-line="88" data-uid="lnk30" id="link_user_mobile"><path d="M283.33,104.45 C297.19,126.32 316.8173,157.2926 334.1573,184.6426" fill="none" id="user-to-mobile" style="stroke:#0F766E;stroke-width:1;stroke-dasharray:7,7;"/><polygon fill="#0F766E" points="337.37,189.71,335.9291,179.9671,334.6927,185.4872,329.1726,184.2508,337.37,189.71" style="stroke:#0F766E;stroke-width:1;"/></g><!--link web to api--><g class="link" data-entity-1="web" data-entity-2="api" data-source-line="89" data-uid="lnk31" id="link_web_api"><path d="M182.57,260.11 C183.12,277.5 185.15,299.35 191,318 C197.07,337.35 204.735,352.0641 214.705,367.7741" fill="none" id="web-to-api" style="stroke:#4B5563;stroke-width:1;"/><polygon fill="#4B5563" points="217.92,372.84,216.4748,363.0978,215.2408,368.6184,209.7202,367.3844,217.92,372.84" style="stroke:#4B5563;stroke-width:1;"/><text fill="#6B7280" font-family="Helvetica" font-size="10" lengthAdjust="spacing" textLength="62.2266" x="196" y="310.7002">HTTPS/JSON</text></g><!--link mobile to api--><g class="link" data-entity-1="mobile" data-entity-2="api" data-source-line="90" data-uid="lnk32" id="link_mobile_api"><path d="M335.34,266.11 C313.49,297.72 285.8523,337.6948 265.1923,367.5748" fill="none" id="mobile-to-api" style="stroke:#0F766E;stroke-width:1;stroke-dasharray:7,7;"/><polygon fill="#0F766E" points="261.78,372.51,270.1886,367.3821,264.6236,368.3974,263.6084,362.8323,261.78,372.51" style="stroke:#0F766E;stroke-width:1;"/></g><!--link api to auth--><g class="link" data-entity-1="api" data-entity-2="auth" data-source-line="91" data-uid="lnk33" id="link_api_auth"><path d="M237.55,437.41 C235.23,467.27 232.2155,505.9381 229.8955,535.7481" fill="none" id="api-to-auth" style="stroke:#4B5563;stroke-width:1;"/><polygon fill="#4B5563" points="229.43,541.73,234.1163,533.0675,229.818,536.7451,226.1404,532.4468,229.43,541.73" style="stroke:#4B5563;stroke-width:1;"/><text fill="#6B7280" font-family="Helvetica" font-size="10" lengthAdjust="spacing" textLength="47.2168" x="240.05" y="479.7002">verify JWT</text></g><!--link api to rag--><g class="link" data-entity-1="api" data-entity-2="rag" data-source-line="92" data-uid="lnk34" id="link_api_rag"><path d="M325.05,409.21 C511.15,417.15 948.79,441.12 1086,495 C1112.68,505.48 1133.958,520.8065 1153.188,537.5765" fill="none" id="api-to-rag" style="stroke:#4B5563;stroke-width:1;"/><polygon fill="#4B5563" points="1157.71,541.52,1153.556,532.59,1153.9417,538.2337,1148.298,538.6194,1157.71,541.52" style="stroke:#4B5563;stroke-width:1;"/><text fill="#6B7280" font-family="Helvetica" font-size="10" lengthAdjust="spacing" textLength="25.0146" x="1067.59" y="479.7002">query</text></g><!--link api to pg--><g class="link" data-entity-1="api" data-entity-2="pg" data-source-line="93" data-uid="lnk35" id="link_api_pg"><path d="M324.96,407.05 C560.29,410.8 1216.56,427.22 1420,495 C1482.48,515.82 1546,507.14 1546,573 C1546,573 1546,573 1546,892 C1546,945.13 1520.6271,995.539 1498.5171,1030.499" fill="none" id="api-to-pg" style="stroke:#4B5563;stroke-width:1;"/><polygon fill="#4B5563" points="1495.31,1035.57,1503.5012,1030.1016,1497.9826,1031.3442,1496.74,1025.8255,1495.31,1035.57" style="stroke:#4B5563;stroke-width:1;"/><text fill="#6B7280" font-family="Helvetica" font-size="10" lengthAdjust="spacing" textLength="28.8867" x="1551" y="747.7002">CRUD</text></g><!--link api to redis--><g class="link" data-entity-1="api" data-entity-2="redis" data-source-line="94" data-uid="lnk36" id="link_api_redis"><path d="M325.16,406.35 C514.14,408.05 982.6,417.39 1371,467 C1504.23,484.02 1654,438.69 1654,573 C1654,573 1654,573 1654,892 C1654,941.86 1654,993.51 1654,1029.74" fill="none" id="api-to-redis" style="stroke:#0F766E;stroke-width:1;stroke-dasharray:7,7;"/><polygon fill="#0F766E" points="1654,1035.74,1658,1026.74,1654,1030.74,1650,1026.74,1654,1035.74" style="stroke:#0F766E;stroke-width:1;"/><text fill="#6B7280" font-family="Helvetica" font-size="10" lengthAdjust="spacing" textLength="55.5859" x="1659" y="747.7002">cache check</text></g><!--link api to flags--><g class="link" data-entity-1="api" data-entity-2="flags" data-source-line="95" data-uid="lnk37" id="link_api_flags"><path d="M325.01,418.59 C369.91,430.18 420.8,452.42 446,495 C476.56,546.64 476.56,578.36 446,630 C432.83,652.25 419.22,648.95 395,658 C379.24,663.89 372.92,658.22 358,666 C335.94,677.5 319.5005,691.9898 304.2505,708.2798" fill="none" id="api-to-flags" style="stroke:#0F766E;stroke-width:1;stroke-dasharray:7,7;"/><polygon fill="#0F766E" points="300.15,712.66,309.2209,708.8234,303.5671,709.0099,303.3807,703.3561,300.15,712.66" style="stroke:#0F766E;stroke-width:1;"/><text fill="#6B7280" font-family="Helvetica" font-size="10" lengthAdjust="spacing" textLength="45.0244" x="473.92" y="576.7002">flag check</text></g><!--link api to hitl--><g class="link" data-entity-1="api" data-entity-2="hitl" data-source-line="96" data-uid="lnk38" id="link_api_hitl"><path d="M279.41,437.47 C295.05,452.82 310.78,472.77 317,495 C333.17,552.78 353.23,582.17 317,630 C281.32,677.11 241.18,638.26 189,666 C166.26,678.09 148.4887,692.4467 131.6387,708.3867" fill="none" id="api-to-hitl" style="stroke:#0F766E;stroke-width:1;stroke-dasharray:7,7;"/><polygon fill="#0F766E" points="127.28,712.51,136.5669,709.2308,130.9123,709.0739,131.0692,703.4192,127.28,712.51" style="stroke:#0F766E;stroke-width:1;"/><text fill="#6B7280" font-family="Helvetica" font-size="10" lengthAdjust="spacing" textLength="59.4824" x="342.32" y="576.7002">queue review</text></g><!--link rag to pii--><g class="link" data-entity-1="rag" data-entity-2="pii" data-source-line="98" data-uid="lnk39" id="link_rag_pii"><path d="M1185.36,606.39 C1180.87,636.75 1174.9776,676.5445 1170.4976,706.8445" fill="none" id="rag-to-pii" style="stroke:#0F766E;stroke-width:1;stroke-dasharray:7,7;"/><polygon fill="#0F766E" points="1169.62,712.78,1174.8934,704.4618,1170.3513,707.8338,1166.9794,703.2917,1169.62,712.78" style="stroke:#0F766E;stroke-width:1;"/><text fill="#6B7280" font-family="Helvetica" font-size="10" lengthAdjust="spacing" textLength="42.7979" x="1185.47" y="650.7002">redact PII</text></g><!--link rag to vector--><g class="link" data-entity-1="rag" data-entity-2="vector" data-source-line="99" data-uid="lnk40" id="link_rag_vector"><path d="M1277.63,585.1 C1328.92,596.01 1389.76,618.73 1422,666 C1502.05,783.39 1390.5893,947.408 1327.4293,1024.948" fill="none" id="rag-to-vector" style="stroke:#4B5563;stroke-width:1;"/><polygon fill="#4B5563" points="1323.64,1029.6,1332.4253,1025.1482,1326.7977,1025.7233,1326.2226,1020.0958,1323.64,1029.6" style="stroke:#4B5563;stroke-width:1;"/><text fill="#6B7280" font-family="Helvetica" font-size="10" lengthAdjust="spacing" textLength="58.3545" x="1448.16" y="821.7002">retrieve top-k</text></g><!--link rag to prompts--><g class="link" data-entity-1="rag" data-entity-2="prompts" data-source-line="100" data-uid="lnk41" id="link_rag_prompts"><path d="M1217.31,606.39 C1243.71,636.75 1279.5527,677.9525 1305.9027,708.2525" fill="none" id="rag-to-prompts" style="stroke:#0F766E;stroke-width:1;stroke-dasharray:7,7;"/><polygon fill="#0F766E" points="1309.84,712.78,1306.9524,703.364,1306.559,709.0071,1300.9158,708.6136,1309.84,712.78" style="stroke:#0F766E;stroke-width:1;"/><text fill="#6B7280" font-family="Helvetica" font-size="10" lengthAdjust="spacing" textLength="67.8076" x="1264.09" y="650.7002">load prompt vN</text></g><!--link rag to router--><g class="link" data-entity-1="rag" data-entity-2="router" data-source-line="101" data-uid="lnk42" id="link_rag_router"><path d="M1151.36,606.39 C1114,636.75 1062.3766,678.6963 1025.0866,708.9963" fill="none" id="rag-to-router" style="stroke:#0F766E;stroke-width:1;stroke-dasharray:7,7;"/><polygon fill="#0F766E" points="1020.43,712.78,1029.9373,710.2088,1024.3105,709.6269,1024.8924,704.0001,1020.43,712.78" style="stroke:#0F766E;stroke-width:1;"/><text fill="#6B7280" font-family="Helvetica" font-size="10" lengthAdjust="spacing" textLength="37.2363" x="1115.75" y="650.7002">LLM call</text></g><!--link router to llm--><g class="link" data-entity-1="router" data-entity-2="llm" data-source-line="102" data-uid="lnk43" id="link_router_llm"><path d="M982,777.25 C982,801.4 982,828.68 982,852.82" fill="none" id="router-to-llm" style="stroke:#4B5563;stroke-width:1;"/><polygon fill="#4B5563" points="982,858.82,986,849.82,982,853.82,978,849.82,982,858.82" style="stroke:#4B5563;stroke-width:1;"/></g><!--link rag to audit--><g class="link" data-entity-1="rag" data-entity-2="audit" data-source-line="103" data-uid="lnk44" id="link_rag_audit"><path d="M1139.8,606.38 C1123.24,615.4 1104.34,624.32 1086,630 C1056.09,639.26 1046.89,632.87 1016,638 C958.55,647.54 941.11,642.11 888,666 C861.79,677.79 840.3178,692.8655 820.4378,709.0955" fill="none" id="rag-to-audit" style="stroke:#0F766E;stroke-width:1;stroke-dasharray:7,7;"/><polygon fill="#0F766E" points="815.79,712.89,825.2913,710.2968,819.6632,709.728,820.2321,704.0998,815.79,712.89" style="stroke:#0F766E;stroke-width:1;"/><text fill="#6B7280" font-family="Helvetica" font-size="10" lengthAdjust="spacing" textLength="58.3643" x="1021" y="650.7002">trace request</text></g><!--link ingest to pubsub--><g class="link" data-entity-1="ingest" data-entity-2="pubsub" data-source-line="105" data-uid="lnk45" id="link_ingest_pubsub"><path d="M903.67,591.62 C848.15,602.73 773.23,617.54 707,630 C684.7,634.19 525.97,655.23 506,666 C485.3,677.16 470.7996,691.5459 457.5996,708.0359" fill="none" id="ingest-to-pubsub" style="stroke:#0F766E;stroke-width:1;stroke-dasharray:7,7;"/><polygon fill="#0F766E" points="453.85,712.72,462.5971,708.1935,456.9746,708.8166,456.3516,703.1941,453.85,712.72" style="stroke:#0F766E;stroke-width:1;"/><text fill="#6B7280" font-family="Helvetica" font-size="10" lengthAdjust="spacing" textLength="47.8125" x="657.7" y="650.7002">publish job</text></g><!--link pubsub to workers--><g class="link" data-entity-1="pubsub" data-entity-2="workers" data-source-line="106" data-uid="lnk46" id="link_pubsub_workers"><path d="M469.25,777.28 C480.57,785.77 493.36,794.42 506,801 C567.97,833.25 638.1963,855.6201 693.4263,870.4901" fill="none" id="pubsub-to-workers" style="stroke:#0F766E;stroke-width:1;stroke-dasharray:7,7;"/><polygon fill="#0F766E" points="699.22,872.05,691.5694,865.8477,694.3919,870.7501,689.4896,873.5726,699.22,872.05" style="stroke:#0F766E;stroke-width:1;"/></g><!--link workers to src--><g class="link" data-entity-1="workers" data-entity-2="src" data-source-line="107" data-uid="lnk47" id="link_workers_src"><path d="M774,923.27 C774,958.12 774,1007.82 774,1040.1" fill="none" id="workers-to-src" style="stroke:#4B5563;stroke-width:1;"/><polygon fill="#4B5563" points="774,1046.1,778,1037.1,774,1041.1,770,1037.1,774,1046.1" style="stroke:#4B5563;stroke-width:1;"/><text fill="#6B7280" font-family="Helvetica" font-size="10" lengthAdjust="spacing" textLength="15.5664" x="779" y="967.7002">pull</text></g><!--link workers to vector--><g class="link" data-entity-1="workers" data-entity-2="vector" data-source-line="108" data-uid="lnk48" id="link_workers_vector"><path d="M834.92,923.41 C854.86,932.43 877.44,941.35 899,947 C933.99,956.18 944.05,950.93 980,955 C1077.5,966.05 1110.97,939.64 1199,983 C1220.96,993.82 1236.7227,1007.82 1251.9027,1025.12" fill="none" id="workers-to-vector" style="stroke:#4B5563;stroke-width:1;"/><polygon fill="#4B5563" points="1255.86,1029.63,1252.9307,1020.2269,1252.5623,1025.8717,1246.9174,1025.5033,1255.86,1029.63" style="stroke:#4B5563;stroke-width:1;"/><text fill="#6B7280" font-family="Helvetica" font-size="10" lengthAdjust="spacing" textLength="85.0537" x="1183.86" y="967.7002">upsert embeddings</text></g><!--link workers to gcs--><g class="link" data-entity-1="workers" data-entity-2="gcs" data-source-line="109" data-uid="lnk49" id="link_workers_gcs"><path d="M833.09,923.47 C891.89,954.79 976.7145,999.969 1038.2845,1032.769" fill="none" id="workers-to-gcs" style="stroke:#4B5563;stroke-width:1;"/><polygon fill="#4B5563" points="1043.58,1035.59,1037.5175,1027.8282,1039.1671,1033.2391,1033.7561,1034.8888,1043.58,1035.59" style="stroke:#4B5563;stroke-width:1;"/><text fill="#6B7280" font-family="Helvetica" font-size="10" lengthAdjust="spacing" textLength="40.0146" x="927.32" y="967.7002">raw docs</text></g><!--link api to obs--><g class="link" data-entity-1="api" data-entity-2="obs" data-source-line="111" data-uid="lnk50" id="link_api_obs"><path d="M325.17,409.37 C391,416.65 479.49,437.45 532,495 C588.39,556.8 599.04,654.7133 600.77,706.5733" fill="none" id="api-to-obs" style="stroke:#0F766E;stroke-width:1;stroke-dasharray:7,7;"/><polygon fill="#0F766E" points="600.97,712.57,604.6677,703.4416,600.8033,707.5728,596.6722,703.7084,600.97,712.57" style="stroke:#0F766E;stroke-width:1;"/><text fill="#6B7280" font-family="Helvetica" font-size="10" lengthAdjust="spacing" textLength="56.9727" x="596.25" y="576.7002">logs + traces</text></g><!--link rag to obs--><g class="link" data-entity-1="rag" data-entity-2="obs" data-source-line="112" data-uid="lnk51" id="link_rag_obs"><path d="M1141.35,606.44 C1124.48,615.76 1105.02,624.84 1086,630 C1046.07,640.82 941.21,634.29 900,638 C854.43,642.1 737.93,647.68 696,666 C671.17,676.85 651.9273,691.9841 634.4773,708.6641" fill="none" id="rag-to-obs" style="stroke:#0F766E;stroke-width:1;stroke-dasharray:7,7;"/><polygon fill="#0F766E" points="630.14,712.81,639.4098,709.4827,633.7544,709.3551,633.882,703.6997,630.14,712.81" style="stroke:#0F766E;stroke-width:1;"/></g><!--SRC=[bLTHKjj84FtNARgIgYr2J0WcWOqhIPMmCJW5s62IVCJv64jZUS9uHZipCl5kRTL-xGboYEK4-x_S92VPxf4m4iXabwg0hUvvtVswvxNYX9CSsatu_iStw0YM63QRSOWvH5ev9XGt5lxv6zewCqvmqmj7QY2vKF06ZZyCO6qmPPR3rXDo6cYXd93o-WgjkQ49Q-oBpfm54NCqJiJrbGMkOCwaY9aJMZq90diXLCemD8nPT94OdQcuhQKsyBZhVqeUCP-mJBekfdV2CDL3BkVSYOZL-mp5hvXUisIqKnRhIw4Ic31fUSbIn3LOTFL8Q8o-B1BQsTjj_lpyhf52_T0XpwLiIbaSKoOlWYdo0zPnmxLRfBpCYU6HOoh1FlqM0EnL6NhzEiKMQVNsBJpUwZR3xLtqMMPJjXPC8e8sCJSFdnwwXUGbwrZBEFZzloUrd9vAv59U5OTbw4fgTIx_8uMK1h3fup_lThhX7LwMrkVTtPsT_NkyBEtDJkV5tYrlDypSs6Dcf_n_SSE_OfiLapwrLzsmkrTDhMmlXkbEScMFL-rmE-nMukEzOcEwVJNXwxfHtu1Qpc-WImJK1xb7UJtHzVJUaXhSSlbeVVr6XTRN7m6pa5cygBT36WGffi4ITEqQ3CjL_CXdLy48qnG-yl7w-aYTSHOvU0hdUE66aH6f6waEHXvhPk86JBIPPP89mwqFTyd7K9dAEkXZFHQI4tfNPWxR16iTPjoJaHBz8SOALMoqY4VgKowGsrvvu-khYA5kVlQ1PXu3RZac8fQrxSVu-oS8CpUjAs_GWmFc-2LR-2IOTVI8r7dXfbh1zhEjvaZHwPC66FJSa68cN0FwALVewZDWgVX1gNWUXjpCHUIBFMWFeESLtYrW89aZyaQgt-kqiUZZRWZziDqxpS7fR1MzN1ysEPfow8LOv5buK5CZFeLzbU1P2jqtw6uTbP8PT7H6SDmkJnEkHceDcSKeVYVXrcblF_4f69OyND_HqJ6SuTwYMHkf8-4uFTd45MVS1LyGiLBIieAsP1bAz_S_ly71u3n7zmVB_Rk3FkZru8p7E7su_oZ006TCn48ZL-RwB_IoSDh6k5f0yoNW_3p3XUInKo4U0ZPwbZh4JWGoiiYXwP65ETuIZAPm_sAxXDkWx7cSWnO-gu4xEifcs5xegGJ9BjBsFSMSssWnmkAdOVlmQAHwAZBNL-JFP0CizYVEP15BU807-Zzqsd_A6x_KCgfEMvSOFZmzWgqTYj-MEek1lXyZ68Pa4c-mBn8Pd67hKImmA-oGS7cboHtCD9bZdTgiXDkVZRbVqfQc4ITgg3FaaZ9tE5HvY_Afof7k1C0-8pDjXYHGZ6C-qsQ1DHe-KaDkgIUO8OrqH3xv0FapbMwK8VlZBnW920Hvog_Vi9ppeDEr3L-rRW3_ckBGvXAMHBR2TMWNAfgYM9AYz5DRSza6sNXpc8rl-IaUK9UBKS3yl-Xn7Y7DnZORFp197xMvmAOCj9Qtc6UPyX0bq0RWbLRMop9-pHNOdtreJaFgD3ObAOiJwZBkWWsjv8A4S1SGTtcvdbQKYKwlHk-FSUFC6QepojpDvU9koZEQ_GF39amnl1OOxfnBZYRZ8mxfVYny22poWG1TpbncE7GbIom5UAyanuq4bil9nXJdd-FgEDCIMNDqRV4wu0XDFFI43Zq0VjWxFmBamcYKHpZDUERP-R1y4uTfDgEv7gdIwYlHCyN_BDpPIlT44pU81-N6yQyGzd3XEHomL4GZXTEPK9Y8RKJ429CULiePbDzfxkpyGbisyqG876-WYJ2p_4YndQs9gYY1VptO-5IynZJSL4GNw6tVD3zllALjllJ8tqmQ-Li76VCD7D36H_EBlPSlTxRfEUt55XoUdm-6c- -6_PEWMDLr6EWRa7yLW7PVYyHOJ1RmxkFvVHVQJItu9UDcST-OagrzzhvpOxeNDjUELgucWF-YYvM- -SIq_DyVkFhU-xGoZZ7cWbzYz_5OdJCjgHPbGkzNkEnk76_hoANIE_bzpS7fTEDYDMAneLeWDOkBhp0_MNcWsC4jeA74ToiP54ygQU3ehKJ8nQ15CXHHoLYwTK5GxA_Q97FjQz47AV3MegG5nSCw_qBEWXjPgwH6yqn8c7cjVSbWbk8KE-3BFLNlZz9FTBDBY3LkWPMD9e4YbXEID5-xNKaH-WR_0W00]--></g></svg>