<svg xmlns="http://www.w3.org/2000/svg" xmlns:xlink="http://www.w3.org/1999/xlink" contentStyleType="text/css" data-diagram-type="DESCRIPTION" height="1187px" preserveAspectRatio="none" style="width:659px;height:1187px;background:#FFFFFF;" version="1.1" viewBox="0 0 659 1187" width="659px" zoomAndPan="magnify"><title>C3 &#8212; Composants internes du RAG Engine</title><defs/><g><g class="title" data-source-line="1"><text fill="#000000" font-family="Helvetica" font-size="14" font-weight="bold" lengthAdjust="spacing" textLength="289.3652" x="178.0613" y="20.7803">C3 &#8212; Composants internes du RAG Engine</text></g><!--cluster RAG Engine--><g class="cluster" data-entity="RAG Engine" data-source-line="37" data-uid="ent0003" id="cluster_RAG Engine"><path d="M210.69,41 L274.692,41 A9,9 0 0 1 280.692,47 L287.692,59 L537.69,59 A6,6 0 0 1 543.69,65 L543.69,1174 A6,6 0 0 1 537.69,1180 L210.69,1180 A6,6 0 0 1 204.69,1174 L204.69,47 A6,6 0 0 1 210.69,41" fill="none" style="stroke:#000000;stroke-width:1.5;"/><line style="stroke:#000000;stroke-width:1.5;" x1="204.69" x2="287.692" y1="59" y2="59"/><text fill="#000000" font-family="Helvetica" font-size="12" font-weight="bold" lengthAdjust="spacing" textLength="70.002" x="208.69" y="52.2402">RAG Engine</text></g><!--entity analyzer--><g class="entity" data-entity="analyzer" data-source-line="38" data-uid="ent0004" id="entity_analyzer"><rect fill="#FFFFFF" height="68" rx="6" ry="6" style="stroke:#1F2A37;stroke-width:0.5;" width="146.7383" x="234.32" y="72"/><text fill="#1F2A37" font-family="Helvetica" font-size="12" font-weight="bold" lengthAdjust="spacing" textLength="88.0371" x="244.32" y="91.2402">Query Analyzer</text><text fill="#1F2A37" font-family="Helvetica" font-size="12" lengthAdjust="spacing" textLength="126.7383" x="244.32" y="103.2402">D&#233;tecte intent (juridique</text><text fill="#1F2A37" font-family="Helvetica" font-size="12" lengthAdjust="spacing" textLength="90.0293" x="244.32" y="115.2402">march&#233;, transac)</text><text fill="#1F2A37" font-family="Helvetica" font-size="12" lengthAdjust="spacing" textLength="92.3789" x="244.32" y="127.2402">+ filtres metadata</text></g><!--entity retriever--><g class="entity" data-entity="retriever" data-source-line="40" data-uid="ent0005" id="entity_retriever"><rect fill="#FFFFFF" height="56" rx="6" ry="6" style="stroke:#1F2A37;stroke-width:0.5;" width="174.4238" x="220.48" y="212"/><text fill="#1F2A37" font-family="Helvetica" font-size="12" font-weight="bold" lengthAdjust="spacing" textLength="52.0313" x="230.48" y="231.2402">Retriever</text><text fill="#1F2A37" font-family="Helvetica" font-size="12" lengthAdjust="spacing" textLength="74.0273" x="230.48" y="243.2402">Hybrid search</text><text fill="#1F2A37" font-family="Helvetica" font-size="12" lengthAdjust="spacing" textLength="154.4238" x="230.48" y="255.2402">dense (embeddings) + BM25</text></g><!--entity reranker--><g class="entity" data-entity="reranker" data-source-line="42" data-uid="ent0006" id="entity_reranker"><rect fill="#F0FDFA" height="56" rx="6" ry="6" style="stroke:#2DD4BF;stroke-width:0.5;stroke-dasharray:7,7;" width="142.0566" x="220.66" y="340"/><text fill="#0F766E" font-family="Helvetica" font-size="12" font-weight="bold" lengthAdjust="spacing" textLength="52.0313" x="230.66" y="359.2402">Reranker</text><text fill="#0F766E" font-family="Helvetica" font-size="12" lengthAdjust="spacing" textLength="78.6973" x="230.66" y="371.2402">Cross-encoder</text><text fill="#0F766E" font-family="Helvetica" font-size="12" lengthAdjust="spacing" textLength="122.0566" x="230.66" y="383.2402">Cohere rerank-3 / local</text></g><!--entity builder--><g class="entity" data-entity="builder" data-source-line="44" data-uid="ent0007" id="entity_builder"><rect fill="#FFFFFF" height="56" rx="6" ry="6" style="stroke:#1F2A37;stroke-width:0.5;" width="144.0547" x="220.66" y="468"/><text fill="#1F2A37" font-family="Helvetica" font-size="12" font-weight="bold" lengthAdjust="spacing" textLength="89.3379" x="230.66" y="487.2402">Context Builder</text><text fill="#1F2A37" font-family="Helvetica" font-size="12" lengthAdjust="spacing" textLength="124.0547" x="230.66" y="499.2402">Assemble top-k chunks</text><text fill="#1F2A37" font-family="Helvetica" font-size="12" lengthAdjust="spacing" textLength="116.0684" x="230.66" y="511.2402">+ metadata + sources</text></g><!--entity prompt--><g class="entity" data-entity="prompt" data-source-line="46" data-uid="ent0008" id="entity_prompt"><rect fill="#FFFFFF" height="56" rx="6" ry="6" style="stroke:#1F2A37;stroke-width:0.5;" width="130.7012" x="222.34" y="596"/><text fill="#1F2A37" font-family="Helvetica" font-size="12" font-weight="bold" lengthAdjust="spacing" textLength="86.6719" x="232.34" y="615.2402">Prompt Builder</text><text fill="#1F2A37" font-family="Helvetica" font-size="12" lengthAdjust="spacing" textLength="110.7012" x="232.34" y="627.2402">Inject system prompt</text><text fill="#1F2A37" font-family="Helvetica" font-size="12" lengthAdjust="spacing" textLength="77.0273" x="232.34" y="639.2402">+ few-shot QC</text></g><!--entity llmclient--><g class="entity" data-entity="llmclient" data-source-line="48" data-uid="ent0009" id="entity_llmclient"><rect fill="#FFFFFF" height="56" rx="6" ry="6" style="stroke:#1F2A37;stroke-width:0.5;" width="108.6934" x="233.34" y="724"/><text fill="#1F2A37" font-family="Helvetica" font-size="12" font-weight="bold" lengthAdjust="spacing" textLength="61.3242" x="243.34" y="743.2402">LLM Client</text><text fill="#1F2A37" font-family="Helvetica" font-size="12" lengthAdjust="spacing" textLength="88.6934" x="243.34" y="755.2402">Streaming, retry,</text><text fill="#1F2A37" font-family="Helvetica" font-size="12" lengthAdjust="spacing" textLength="82.7227" x="243.34" y="767.2402">timeout, budget</text></g><!--entity citation--><g class="entity" data-entity="citation" data-source-line="50" data-uid="ent0010" id="entity_citation"><rect fill="#FFFFFF" height="56" rx="6" ry="6" style="stroke:#1F2A37;stroke-width:0.5;" width="141.3887" x="228" y="852"/><text fill="#1F2A37" font-family="Helvetica" font-size="12" font-weight="bold" lengthAdjust="spacing" textLength="98.6895" x="238" y="871.2402">Citation Resolver</text><text fill="#1F2A37" font-family="Helvetica" font-size="12" lengthAdjust="spacing" textLength="121.3887" x="238" y="883.2402">Spans LLM &#8594; sources</text><text fill="#1F2A37" font-family="Helvetica" font-size="12" lengthAdjust="spacing" textLength="85.3887" x="238" y="895.2402">Liens cliquables</text></g><!--entity validator--><g class="entity" data-entity="validator" data-source-line="52" data-uid="ent0011" id="entity_validator"><rect fill="#F0FDFA" height="56" rx="6" ry="6" style="stroke:#2DD4BF;stroke-width:0.5;stroke-dasharray:7,7;" width="174.7578" x="220.31" y="980"/><text fill="#0F766E" font-family="Helvetica" font-size="12" font-weight="bold" lengthAdjust="spacing" textLength="112.0313" x="230.31" y="999.2402">Response Validator</text><text fill="#0F766E" font-family="Helvetica" font-size="12" lengthAdjust="spacing" textLength="100.7285" x="230.31" y="1011.2402">Citation pr&#233;sente ?</text><text fill="#0F766E" font-family="Helvetica" font-size="12" lengthAdjust="spacing" textLength="154.7578" x="230.31" y="1023.2402">Answerable ? Hallucination ?</text></g><!--entity eval--><g class="entity" data-entity="eval" data-source-line="54" data-uid="ent0012" id="entity_eval"><rect fill="#F0FDFA" height="56" rx="6" ry="6" style="stroke:#2DD4BF;stroke-width:0.5;stroke-dasharray:7,7;" width="120.0547" x="247.66" y="1108"/><text fill="#0F766E" font-family="Helvetica" font-size="12" font-weight="bold" lengthAdjust="spacing" textLength="53.3613" x="257.66" y="1127.2402">Eval Sink</text><text fill="#0F766E" font-family="Helvetica" font-size="12" lengthAdjust="spacing" textLength="74.6953" x="257.66" y="1139.2402">Traces Ragas</text><text fill="#0F766E" font-family="Helvetica" font-size="12" lengthAdjust="spacing" textLength="100.0547" x="257.66" y="1151.2402">Golden set scoring</text></g><!--entity api--><g class="entity" data-entity="api" data-source-line="35" data-uid="ent0002" id="entity_api"><rect fill="#F9FAFB" height="44" rx="6" ry="6" style="stroke:#9CA3AF;stroke-width:0.5;" width="92.6973" x="559.34" y="986"/><text fill="#6B7280" font-family="Helvetica" font-size="12" font-weight="bold" lengthAdjust="spacing" textLength="72.6973" x="569.34" y="1005.2402">API Gateway</text><text fill="#6B7280" font-family="Helvetica" font-size="12" lengthAdjust="spacing" textLength="42.6797" x="569.34" y="1017.2402">FastAPI</text></g><!--entity vector--><g class="entity" data-entity="vector" data-source-line="57" data-uid="ent0013" id="entity_vector"><path d="M79.67,351.5 C79.67,341.5 132.6866,341.5 132.6866,341.5 C132.6866,341.5 185.7032,341.5 185.7032,351.5 L185.7032,384.5 C185.7032,394.5 132.6866,394.5 132.6866,394.5 C132.6866,394.5 79.67,394.5 79.67,384.5 L79.67,351.5" fill="#F9FAFB" style="stroke:#4B5563;stroke-width:0.5;"/><path d="M79.67,351.5 C79.67,361.5 132.6866,361.5 132.6866,361.5 C132.6866,361.5 185.7032,361.5 185.7032,351.5" fill="none" style="stroke:#4B5563;stroke-width:0.5;"/><text fill="#1F2A37" font-family="Helvetica" font-size="12" font-weight="bold" lengthAdjust="spacing" textLength="50.6777" x="89.67" y="374.7402">pgvector</text><text fill="#1F2A37" font-family="Helvetica" font-size="12" lengthAdjust="spacing" textLength="86.0332" x="89.67" y="386.7402">Cloud SQL MTL</text></g><!--entity router--><g class="entity" data-entity="router" data-source-line="58" data-uid="ent0014" id="entity_router"><rect fill="#F9FAFB" height="44" rx="6" ry="6" style="stroke:#9CA3AF;stroke-width:0.5;" width="86.6563" x="102.36" y="858"/><text fill="#6B7280" font-family="Helvetica" font-size="12" font-weight="bold" lengthAdjust="spacing" textLength="66.6563" x="112.36" y="877.2402">LLM Router</text><text fill="#6B7280" font-family="Helvetica" font-size="12" lengthAdjust="spacing" textLength="42.6914" x="112.36" y="889.2402">LiteLLM</text></g><!--entity registry--><g class="entity" data-entity="registry" data-source-line="59" data-uid="ent0015" id="entity_registry"><rect fill="#F9FAFB" height="44" rx="6" ry="6" style="stroke:#9CA3AF;stroke-width:0.5;" width="113.3516" x="75.02" y="730"/><text fill="#6B7280" font-family="Helvetica" font-size="12" font-weight="bold" lengthAdjust="spacing" textLength="93.3516" x="85.02" y="749.2402">Prompt Registry</text><text fill="#6B7280" font-family="Helvetica" font-size="12" lengthAdjust="spacing" textLength="58.0254" x="85.02" y="761.2402">Git-backed</text></g><!--entity audit--><g class="entity" data-entity="audit" data-source-line="60" data-uid="ent0016" id="entity_audit"><rect fill="#F9FAFB" height="44" rx="6" ry="6" style="stroke:#9CA3AF;stroke-width:0.5;" width="87.3828" x="7" y="986"/><text fill="#6B7280" font-family="Helvetica" font-size="12" font-weight="bold" lengthAdjust="spacing" textLength="55.9805" x="17" y="1005.2402">Audit Log</text><text fill="#6B7280" font-family="Helvetica" font-size="12" lengthAdjust="spacing" textLength="67.3828" x="17" y="1017.2402">Append-only</text></g><!--link api to analyzer--><g class="link" data-entity-1="api" data-entity-2="analyzer" data-source-line="62" data-uid="lnk17" id="link_api_analyzer"><path d="M602.14,985.67 C598.29,960.66 592.69,917.95 592.69,881 C592.69,239 592.69,239 592.69,239 C592.69,145.89 471.8728,118.8308 387.4328,110.7608" fill="none" id="api-to-analyzer" style="stroke:#1F2A37;stroke-width:2;"/><polygon fill="#1F2A37" points="381.46,110.19,390.0386,115.0281,386.4373,110.6657,390.7997,107.0644,381.46,110.19" style="stroke:#1F2A37;stroke-width:2;"/><text fill="#4B5563" font-family="Helvetica" font-size="10" lengthAdjust="spacing" textLength="57.7979" x="593.69" y="562.7002">POST /query</text></g><!--link analyzer to retriever--><g class="link" data-entity-1="analyzer" data-entity-2="retriever" data-source-line="63" data-uid="lnk18" id="link_analyzer_retriever"><path d="M307.69,140.31 C307.69,162.46 307.69,185.18 307.69,205.92" fill="none" id="analyzer-to-retriever" style="stroke:#4B5563;stroke-width:1;"/><polygon fill="#4B5563" points="307.69,211.92,311.69,202.92,307.69,206.92,303.69,202.92,307.69,211.92" style="stroke:#4B5563;stroke-width:1;"/><text fill="#4B5563" font-family="Helvetica" font-size="10" lengthAdjust="spacing" textLength="59.751" x="308.69" y="178.7002">intent + filters</text></g><!--link retriever to vector--><g class="link" data-entity-1="retriever" data-entity-2="vector" data-source-line="64" data-uid="lnk19" id="link_retriever_vector"><path d="M256.93,268.36 C241.67,277.23 225.16,287.5 210.69,298 C192.69,311.06 178.3735,323.4138 163.7935,336.9738" fill="none" id="retriever-to-vector" style="stroke:#4B5563;stroke-width:1;"/><polygon fill="#4B5563" points="159.4,341.06,168.7144,337.8598,163.0613,337.6549,163.2662,332.0017,159.4,341.06" style="stroke:#4B5563;stroke-width:1;"/><text fill="#4B5563" font-family="Helvetica" font-size="10" lengthAdjust="spacing" textLength="79.1992" x="211.69" y="306.7002">semantic + lexical</text></g><!--link retriever to reranker--><g class="link" data-entity-1="retriever" data-entity-2="reranker" data-source-line="65" data-uid="lnk20" id="link_retriever_reranker"><path d="M304.22,268.34 C301.54,289.47 298.5953,312.6377 295.9153,333.7577" fill="none" id="retriever-to-reranker" style="stroke:#0F766E;stroke-width:1;stroke-dasharray:7,7;"/><polygon fill="#0F766E" points="295.16,339.71,300.2611,331.2851,295.7894,334.7498,292.3248,330.2781,295.16,339.71" style="stroke:#0F766E;stroke-width:1;"/><text fill="#4B5563" font-family="Helvetica" font-size="10" lengthAdjust="spacing" textLength="28.3545" x="301.17" y="306.7002">top-50</text></g><!--link reranker to builder--><g class="link" data-entity-1="reranker" data-entity-2="builder" data-source-line="66" data-uid="lnk21" id="link_reranker_builder"><path d="M291.91,396.34 C292.08,417.47 292.2645,440.5902 292.4245,461.7102" fill="none" id="reranker-to-builder" style="stroke:#0F766E;stroke-width:1;stroke-dasharray:7,7;"/><polygon fill="#0F766E" points="292.47,467.71,296.4017,458.68,292.4321,462.7101,288.4019,458.7406,292.47,467.71" style="stroke:#0F766E;stroke-width:1;"/><text fill="#4B5563" font-family="Helvetica" font-size="10" lengthAdjust="spacing" textLength="28.3545" x="293.22" y="434.7002">top-10</text></g><!--link retriever to builder--><g class="link" data-entity-1="retriever" data-entity-2="builder" data-source-line="67" data-uid="lnk22" id="link_retriever_builder"><path d="M335.16,268.09 C351.88,286.58 371.69,312.61 380.69,340 C388.47,363.64 389.54,372.74 380.69,396 C369.9,424.37 351.2819,445.7764 331.4819,463.7564" fill="none" id="retriever-to-builder" style="stroke:#4B5563;stroke-width:1;"/><polygon fill="#4B5563" points="327.04,467.79,336.3919,464.7009,330.7416,464.4287,331.0138,458.7784,327.04,467.79" style="stroke:#4B5563;stroke-width:1;"/><text fill="#4B5563" font-family="Helvetica" font-size="10" lengthAdjust="spacing" textLength="93.3545" x="387.93" y="370.7002">(sans rerank si MVP)</text></g><!--link builder to prompt--><g class="link" data-entity-1="builder" data-entity-2="prompt" data-source-line="68" data-uid="lnk23" id="link_builder_prompt"><path d="M291.61,524.34 C290.77,545.47 289.8484,568.5947 289.0084,589.7147" fill="none" id="builder-to-prompt" style="stroke:#4B5563;stroke-width:1;"/><polygon fill="#4B5563" points="288.77,595.71,293.1245,586.8761,288.9687,590.7139,285.1308,586.5581,288.77,595.71" style="stroke:#4B5563;stroke-width:1;"/><text fill="#4B5563" font-family="Helvetica" font-size="10" lengthAdjust="spacing" textLength="68.6523" x="291.34" y="562.7002">context + query</text></g><!--link prompt to registry--><g class="link" data-entity-1="prompt" data-entity-2="registry" data-source-line="69" data-uid="lnk24" id="link_prompt_registry"><path d="M222.14,645.98 C202.23,654.73 181.47,666.54 165.69,682 C152.24,695.18 145.3027,709.1177 139.9827,724.0577" fill="none" id="prompt-to-registry" style="stroke:#0F766E;stroke-width:1;stroke-dasharray:7,7;"/><polygon fill="#0F766E" points="137.97,729.71,144.7573,722.5733,139.6473,724.9997,137.2209,719.8897,137.97,729.71" style="stroke:#0F766E;stroke-width:1;"/><text fill="#4B5563" font-family="Helvetica" font-size="10" lengthAdjust="spacing" textLength="112.4316" x="166.69" y="690.7002">get("regulatory_qa", v=N)</text></g><!--link prompt to llmclient--><g class="link" data-entity-1="prompt" data-entity-2="llmclient" data-source-line="70" data-uid="lnk25" id="link_prompt_llmclient"><path d="M287.69,652.34 C287.69,673.47 287.69,696.59 287.69,717.71" fill="none" id="prompt-to-llmclient" style="stroke:#4B5563;stroke-width:1;"/><polygon fill="#4B5563" points="287.69,723.71,291.69,714.71,287.69,718.71,283.69,714.71,287.69,723.71" style="stroke:#4B5563;stroke-width:1;"/><text fill="#4B5563" font-family="Helvetica" font-size="10" lengthAdjust="spacing" textLength="46.6846" x="288.69" y="690.7002">full prompt</text></g><!--link llmclient to router--><g class="link" data-entity-1="llmclient" data-entity-2="router" data-source-line="71" data-uid="lnk26" id="link_llmclient_router"><path d="M256.88,780.34 C230.78,803.5 198.3584,832.2682 174.3484,853.5682" fill="none" id="llmclient-to-router" style="stroke:#4B5563;stroke-width:1;"/><polygon fill="#4B5563" points="169.86,857.55,179.2471,854.5696,173.6003,854.2319,173.938,848.5851,169.86,857.55" style="stroke:#4B5563;stroke-width:1;"/><text fill="#4B5563" font-family="Helvetica" font-size="10" lengthAdjust="spacing" textLength="48.3594" x="221.95" y="818.7002">completion</text></g><!--link llmclient to citation--><g class="link" data-entity-1="llmclient" data-entity-2="citation" data-source-line="72" data-uid="lnk27" id="link_llmclient_citation"><path d="M290.08,780.34 C291.92,801.47 293.9492,824.6126 295.7892,845.7326" fill="none" id="llmclient-to-citation" style="stroke:#4B5563;stroke-width:1;"/><polygon fill="#4B5563" points="296.31,851.71,299.5138,842.3968,295.876,846.7289,291.544,843.0911,296.31,851.71" style="stroke:#4B5563;stroke-width:1;"/><text fill="#4B5563" font-family="Helvetica" font-size="10" lengthAdjust="spacing" textLength="60.0293" x="294.52" y="818.7002">raw response</text></g><!--link citation to validator--><g class="link" data-entity-1="citation" data-entity-2="validator" data-source-line="73" data-uid="lnk28" id="link_citation_validator"><path d="M300.64,908.34 C302.15,929.47 303.8021,952.6053 305.3121,973.7253" fill="none" id="citation-to-validator" style="stroke:#0F766E;stroke-width:1;stroke-dasharray:7,7;"/><polygon fill="#0F766E" points="305.74,979.71,309.088,970.4477,305.3834,974.7227,301.1084,971.0182,305.74,979.71" style="stroke:#0F766E;stroke-width:1;"/><text fill="#4B5563" font-family="Helvetica" font-size="10" lengthAdjust="spacing" textLength="26.123" x="304.46" y="946.7002">check</text></g><!--link validator to eval--><g class="link" data-entity-1="validator" data-entity-2="eval" data-source-line="74" data-uid="lnk29" id="link_validator_eval"><path d="M307.69,1036.34 C307.69,1057.47 307.69,1080.59 307.69,1101.71" fill="none" id="validator-to-eval" style="stroke:#0F766E;stroke-width:1;stroke-dasharray:7,7;"/><polygon fill="#0F766E" points="307.69,1107.71,311.69,1098.71,307.69,1102.71,303.69,1098.71,307.69,1107.71" style="stroke:#0F766E;stroke-width:1;"/><text fill="#4B5563" font-family="Helvetica" font-size="10" lengthAdjust="spacing" textLength="22.2314" x="308.69" y="1074.7002">trace</text></g><!--link citation to api--><g class="link" data-entity-1="citation" data-entity-2="api" data-source-line="75" data-uid="lnk30" id="link_citation_api"><path d="M368.06,908.46 C417.23,928.06 484.68,955.23 543.69,980 C548.67,982.09 548.3468,981.9326 553.5168,984.1526" fill="none" id="citation-to-api" style="stroke:#1F2A37;stroke-width:2;"/><polygon fill="#1F2A37" points="559.03,986.52,552.3384,979.2935,554.4357,984.5472,549.1819,986.6444,559.03,986.52" style="stroke:#1F2A37;stroke-width:2;"/><text fill="#4B5563" font-family="Helvetica" font-size="10" lengthAdjust="spacing" textLength="88.3789" x="470.85" y="946.7002">structured response</text></g><!--link analyzer to audit--><g class="link" data-entity-1="analyzer" data-entity-2="audit" data-source-line="76" data-uid="lnk31" id="link_analyzer_audit"><path d="M234.04,110.07 C149.3,118.01 21.69,145.49 21.69,239 C21.69,239 21.69,239 21.69,881 C21.69,918.71 32.2127,955.5217 40.8027,980.2717" fill="none" id="analyzer-to-audit" style="stroke:#0F766E;stroke-width:1;stroke-dasharray:7,7;"/><polygon fill="#0F766E" points="42.77,985.94,43.5979,976.126,41.1306,981.2164,36.0402,978.7491,42.77,985.94" style="stroke:#0F766E;stroke-width:1;"/><text fill="#4B5563" font-family="Helvetica" font-size="10" lengthAdjust="spacing" textLength="58.3643" x="22.69" y="562.7002">trace request</text></g><!--link citation to audit--><g class="link" data-entity-1="citation" data-entity-2="audit" data-source-line="77" data-uid="lnk32" id="link_citation_audit"><path d="M244.57,908.5 C198.97,931.67 139.9788,961.6315 98.1488,982.8915" fill="none" id="citation-to-audit" style="stroke:#0F766E;stroke-width:1;stroke-dasharray:7,7;"/><polygon fill="#0F766E" points="92.8,985.61,102.6355,985.0981,97.2573,983.3446,99.0109,977.9664,92.8,985.61" style="stroke:#0F766E;stroke-width:1;"/><text fill="#4B5563" font-family="Helvetica" font-size="10" lengthAdjust="spacing" textLength="66.1475" x="183.13" y="946.7002">trace response</text></g><!--SRC=[bLPTKXiv47wVKtInB_pO5MC2R5m9rDWma2gJ1PlAotfhIymqjc9P6YGDZfDArJxj0LAv1EVW9Zd9jaPZZmTiTfStgxk_xvklkoKijmAXimS___e17JL9bM7I6k3IefPe8CcW5vx1gHnoYK5WnbocJBC9tB1uFDGgaqb72QNXboZ_Myf8y9PbmaPAsWziWd2EuXujZzdgd3x_Wh3RN0gQ4KlKbCiXt39XS2bIy992NIq9jLRJGj3hzlx-mTxJeAFwrmIlfH6CU89Wo0fKTfPMlbzZR9aSadjV0u1srOstRsFoykXeuGh0WhUCxKRDSE_GLIkTe5uT_VRVETCHCzZCMHlHIHHMMSje8peyE3Xzobl6coSdhzlH8jwtCu5ByOIP4IR_HnX-TjF4H2xjJHH6xQgqvVX1-x3vQ-EfkEMCDvrmBumg_0cpx8RahQ9VHRdQ-yL4V0k2yeisjhV3o_TmnYnEsMnxUo0ZPYmTRG0pm58Eo_A282LwDgIwScysSbqLoAiCzGn2gfbzGUrGJnuVB6LWldlImkQdJFE4tsKua1Ecuz7ZGmsiPjAmU6iWT-2M2wjfHITecJF0woaGOJv8mLFc7bhDyTwJdizkY0GCEeA1J52IYPiukS4aeSKpMx03xOlcVewjvvKlWPF0iSVkQ6LC7MMio63wgKQqHvJkCkfxy0g4Yfaea7qPb6Fs3Bf3pIEVePrnaNY6q1YIIc6hqleOub4cnyPPCxU4r1kLwHXDJdFZIzVBlzHqNg5uBpzH0fWPtG8JIFDuRZvEwsQaB5nrScWVMO_SxLv0Ht1gh4FjK-FOX0okvQREQWDf-GHLPciaCXcYpK65cCHvpNhS3hVCSYMXXqQ9eglzbAO47ENFlx_F7HZ8Ba4P8CIxZ95htfDu3l12Jqsgt5nyP8AJgyftTrwNwiS7GneHZgaZqaofbwudnt3EXCXYBdtUSKvtFyTugTMdb0LzBiUEw5epKWyzDcJq3MUAEYDfOAadiT9aOGwBhc89aJPuSISGO3gy9_n2k51P0lshBbnSTxscF1OywrUF-k4DxNABTE9dDJ-jBlsg8UhXa1lghQi_uxRk7anCYd7teHT0mYpX5hfgcCzvcg9CwagAcL_oF5YzTjn5LF-zkDTgTiJZCRtVvbtpZ_fHUIkquFAt_ZMykdFNJx0ufa9_zRdaSirRyxl8NpQeJL06ApNUGYgWXQH_87XC9G8_qsClgYN-xQdvDyIp5QlVohTuln4iJbQbprVOP-ysrWagypQDMmOF2eR3nSVBhM0UhjGKEzo2kBXgTi3xL0HMoozQsGBQsiqD-fq9Dz-pF-_OHWtktttOMgeloShTRi5j9aJ17fJdrQRugNFQ9gb0jr7hKXSRtGBDfgJGhs-mE5_r7ULU4iK8ut5GdgpApnUkvTwZk8gyPW1fEcauhCvYcsbCIbNBC_YCnGzwGKCrr0vZN_wGfoK5pJy0]--></g></svg>