<svg xmlns="http://www.w3.org/2000/svg" xmlns:xlink="http://www.w3.org/1999/xlink" contentStyleType="text/css" data-diagram-type="SEQUENCE" height="908px" preserveAspectRatio="none" style="width:1074px;height:908px;background:#FFFFFF;" version="1.1" viewBox="0 0 1074 908" width="1074px" zoomAndPan="magnify"><title>S&#233;quence &#8212; Question r&#233;glementaire d'un courtier</title><defs/><g><text fill="#000000" font-family="Helvetica" font-size="14" font-weight="bold" lengthAdjust="spacing" textLength="333.1836" x="371.8452" y="25.7803">S&#233;quence &#8212; Question r&#233;glementaire d'un courtier</text><g><title>API Gateway</title><rect fill="#F9FAFB" height="642" style="stroke:#D1D5DB;stroke-width:1;" width="10" x="265.9482" y="172"/></g><g><title>RAG Engine</title><rect fill="#F9FAFB" height="330" style="stroke:#D1D5DB;stroke-width:1;" width="10" x="486.2393" y="361"/></g><rect fill="none" height="570" rx="4" ry="4" style="stroke:#2DD4BF;stroke-width:1.5;" width="950.3887" x="117.4854" y="211"/><g><title>Courtier</title><rect fill="#000000" fill-opacity="0.00000" height="720" width="8" x="25.3398" y="112"/><line style="stroke:#D1D5DB;stroke-width:0.5;stroke-dasharray:5,5;" x1="29" x2="29" y1="112" y2="832"/></g><g><title>App Web</title><rect fill="#000000" fill-opacity="0.00000" height="720" width="8" x="155.165" y="112"/><line style="stroke:#D1D5DB;stroke-width:0.5;stroke-dasharray:5,5;" x1="158.4854" x2="158.4854" y1="112" y2="832"/></g><g><title>API Gateway</title><rect fill="#000000" fill-opacity="0.00000" height="720" width="8" x="266.9482" y="112"/><line style="stroke:#D1D5DB;stroke-width:0.5;stroke-dasharray:5,5;" x1="270.9326" x2="270.9326" y1="112" y2="832"/></g><g><title>PII Redactor</title><rect fill="#000000" fill-opacity="0.00000" height="720" width="8" x="396.5391" y="112"/><line style="stroke:#D1D5DB;stroke-width:0.5;stroke-dasharray:5,5;" x1="400.1904" x2="400.1904" y1="112" y2="832"/></g><g><title>RAG Engine</title><rect fill="#000000" fill-opacity="0.00000" height="720" width="8" x="487.2393" y="112"/><line style="stroke:#D1D5DB;stroke-width:0.5;stroke-dasharray:5,5;" x1="490.8877" x2="490.8877" y1="112" y2="832"/></g><g><title>pgvector</title><rect fill="#000000" fill-opacity="0.00000" height="720" width="8" x="642.4063" y="112"/><line style="stroke:#D1D5DB;stroke-width:0.5;stroke-dasharray:5,5;" x1="646.3936" x2="646.3936" y1="112" y2="832"/></g><g><title>Prompt</title><rect fill="#000000" fill-opacity="0.00000" height="720" width="8" x="707.4238" y="112"/><line style="stroke:#D1D5DB;stroke-width:0.5;stroke-dasharray:5,5;" x1="711.4189" x2="711.4189" y1="112" y2="832"/></g><g><title>LLM Router</title><rect fill="#000000" fill-opacity="0.00000" height="720" width="8" x="784.7764" y="112"/><line style="stroke:#D1D5DB;stroke-width:0.5;stroke-dasharray:5,5;" x1="788.4287" x2="788.4287" y1="112" y2="832"/></g><g><title>Vertex AI</title><rect fill="#000000" fill-opacity="0.00000" height="720" width="8" x="900.4756" y="112"/><line style="stroke:#D1D5DB;stroke-width:0.5;stroke-dasharray:5,5;" x1="904.4639" x2="904.4639" y1="112" y2="832"/></g><g><title>Audit Log</title><rect fill="#000000" fill-opacity="0.00000" height="720" width="8" x="978.8408" y="112"/><line style="stroke:#D1D5DB;stroke-width:0.5;stroke-dasharray:5,5;" x1="982.4873" x2="982.4873" y1="112" y2="832"/></g><g><title>Redis</title><rect fill="#000000" fill-opacity="0.00000" height="720" width="8" x="1035.5342" y="112"/><line style="stroke:#D1D5DB;stroke-width:0.5;stroke-dasharray:5,5;" x1="1039.1943" x2="1039.1943" y1="112" y2="832"/></g><g class="participant participant-head" data-participant="user"><text fill="#FFFFFF" font-family="Helvetica" font-size="12" lengthAdjust="spacing" textLength="42.6797" x="5" y="109.2402">Courtier</text><ellipse cx="29.3398" cy="48.5" fill="#1F2A37" rx="8" ry="8" style="stroke:#1F2A37;stroke-width:0.5;"/><path d="M29.3398,56.5 L29.3398,83.5 M16.3398,64.5 L42.3398,64.5 M29.3398,83.5 L16.3398,98.5 M29.3398,83.5 L42.3398,98.5" fill="none" style="stroke:#1F2A37;stroke-width:0.5;"/></g><g class="participant participant-tail" data-participant="user"><text fill="#FFFFFF" font-family="Helvetica" font-size="12" lengthAdjust="spacing" textLength="42.6797" x="5" y="840.2402">Courtier</text><ellipse cx="29.3398" cy="851.5" fill="#1F2A37" rx="8" ry="8" style="stroke:#1F2A37;stroke-width:0.5;"/><path d="M29.3398,859.5 L29.3398,886.5 M16.3398,867.5 L42.3398,867.5 M29.3398,886.5 L16.3398,901.5 M29.3398,886.5 L42.3398,901.5" fill="none" style="stroke:#1F2A37;stroke-width:0.5;"/></g><g class="participant participant-head" data-participant="web"><rect fill="#FFFFFF" height="26" rx="4" ry="4" style="stroke:#1F2A37;stroke-width:0.5;" width="63.3594" x="127.4854" y="85"/><text fill="#1F2A37" font-family="Helvetica" font-size="12" lengthAdjust="spacing" textLength="49.3594" x="134.4854" y="101.2402">App Web</text></g><g class="participant participant-tail" data-participant="web"><rect fill="#FFFFFF" height="26" rx="4" ry="4" style="stroke:#1F2A37;stroke-width:0.5;" width="63.3594" x="127.4854" y="831"/><text fill="#1F2A37" font-family="Helvetica" font-size="12" lengthAdjust="spacing" textLength="49.3594" x="134.4854" y="847.2402">App Web</text></g><g class="participant participant-head" data-participant="api"><rect fill="#FFFFFF" height="26" rx="4" ry="4" style="stroke:#1F2A37;stroke-width:0.5;" width="84.0313" x="228.9326" y="85"/><text fill="#1F2A37" font-family="Helvetica" font-size="12" lengthAdjust="spacing" textLength="70.0313" x="235.9326" y="101.2402">API Gateway</text></g><g class="participant participant-tail" data-participant="api"><rect fill="#FFFFFF" height="26" rx="4" ry="4" style="stroke:#1F2A37;stroke-width:0.5;" width="84.0313" x="228.9326" y="831"/><text fill="#1F2A37" font-family="Helvetica" font-size="12" lengthAdjust="spacing" textLength="70.0313" x="235.9326" y="847.2402">API Gateway</text></g><g class="participant participant-head" data-participant="pii"><rect fill="#F0FDFA" height="26" rx="4" ry="4" style="stroke:#1F2A37;stroke-width:0.5;" width="80.6973" x="360.1904" y="85"/><text fill="#1F2A37" font-family="Helvetica" font-size="12" lengthAdjust="spacing" textLength="66.6973" x="367.1904" y="101.2402">PII Redactor</text></g><g class="participant participant-tail" data-participant="pii"><rect fill="#F0FDFA" height="26" rx="4" ry="4" style="stroke:#1F2A37;stroke-width:0.5;" width="80.6973" x="360.1904" y="831"/><text fill="#1F2A37" font-family="Helvetica" font-size="12" lengthAdjust="spacing" textLength="66.6973" x="367.1904" y="847.2402">PII Redactor</text></g><g class="participant participant-head" data-participant="rag"><rect fill="#FFFFFF" height="26" rx="4" ry="4" style="stroke:#1F2A37;stroke-width:0.5;" width="80.7031" x="450.8877" y="85"/><text fill="#1F2A37" font-family="Helvetica" font-size="12" lengthAdjust="spacing" textLength="66.7031" x="457.8877" y="101.2402">RAG Engine</text></g><g class="participant participant-tail" data-participant="rag"><rect fill="#FFFFFF" height="26" rx="4" ry="4" style="stroke:#1F2A37;stroke-width:0.5;" width="80.7031" x="450.8877" y="831"/><text fill="#1F2A37" font-family="Helvetica" font-size="12" lengthAdjust="spacing" textLength="66.7031" x="457.8877" y="847.2402">RAG Engine</text></g><g class="participant participant-head" data-participant="vector"><text fill="#000000" font-family="Helvetica" font-size="12" lengthAdjust="spacing" textLength="46.0254" x="620.3936" y="109.2402">pgvector</text><path d="M628.4063,64 C628.4063,54 646.4063,54 646.4063,54 C646.4063,54 664.4063,54 664.4063,64 L664.4063,90 C664.4063,100 646.4063,100 646.4063,100 C646.4063,100 628.4063,100 628.4063,90 L628.4063,64" fill="#E2E2F0" style="stroke:#181818;stroke-width:0.5;"/><path d="M628.4063,64 C628.4063,74 646.4063,74 646.4063,74 C646.4063,74 664.4063,74 664.4063,64" fill="none" style="stroke:#181818;stroke-width:0.5;"/></g><g class="participant participant-tail" data-participant="vector"><text fill="#000000" font-family="Helvetica" font-size="12" lengthAdjust="spacing" textLength="46.0254" x="620.3936" y="840.2402">pgvector</text><path d="M628.4063,853 C628.4063,843 646.4063,843 646.4063,843 C646.4063,843 664.4063,843 664.4063,853 L664.4063,879 C664.4063,889 646.4063,889 646.4063,889 C646.4063,889 628.4063,889 628.4063,879 L628.4063,853" fill="#E2E2F0" style="stroke:#181818;stroke-width:0.5;"/><path d="M628.4063,853 C628.4063,863 646.4063,863 646.4063,863 C646.4063,863 664.4063,863 664.4063,853" fill="none" style="stroke:#181818;stroke-width:0.5;"/></g><g class="participant participant-head" data-participant="registry"><rect fill="#F0FDFA" height="38" rx="4" ry="4" style="stroke:#1F2A37;stroke-width:0.5;" width="58.0098" x="682.4189" y="73"/><text fill="#1F2A37" font-family="Helvetica" font-size="12" lengthAdjust="spacing" textLength="38.6777" x="692.085" y="89.2402">Prompt</text><text fill="#1F2A37" font-family="Helvetica" font-size="12" lengthAdjust="spacing" textLength="44.0098" x="689.4189" y="101.2402">Registry</text></g><g class="participant participant-tail" data-participant="registry"><rect fill="#F0FDFA" height="38" rx="4" ry="4" style="stroke:#1F2A37;stroke-width:0.5;" width="58.0098" x="682.4189" y="831"/><text fill="#1F2A37" font-family="Helvetica" font-size="12" lengthAdjust="spacing" textLength="38.6777" x="692.085" y="847.2402">Prompt</text><text fill="#1F2A37" font-family="Helvetica" font-size="12" lengthAdjust="spacing" textLength="44.0098" x="689.4189" y="859.2402">Registry</text></g><g class="participant participant-head" data-participant="router"><rect fill="#F0FDFA" height="26" rx="4" ry="4" style="stroke:#1F2A37;stroke-width:0.5;" width="76.6953" x="750.4287" y="85"/><text fill="#1F2A37" font-family="Helvetica" font-size="12" lengthAdjust="spacing" textLength="62.6953" x="757.4287" y="101.2402">LLM Router</text></g><g class="participant participant-tail" data-participant="router"><rect fill="#F0FDFA" height="26" rx="4" ry="4" style="stroke:#1F2A37;stroke-width:0.5;" width="76.6953" x="750.4287" y="831"/><text fill="#1F2A37" font-family="Helvetica" font-size="12" lengthAdjust="spacing" textLength="62.6953" x="757.4287" y="847.2402">LLM Router</text></g><g class="participant participant-head" data-participant="llm"><rect fill="#FFFFFF" height="38" rx="4" ry="4" style="stroke:#1F2A37;stroke-width:0.5;" width="80.0234" x="864.4639" y="73"/><text fill="#1F2A37" font-family="Helvetica" font-size="12" lengthAdjust="spacing" textLength="49.3535" x="879.7988" y="89.2402">Vertex AI</text><text fill="#1F2A37" font-family="Helvetica" font-size="12" lengthAdjust="spacing" textLength="66.0234" x="871.4639" y="101.2402">Claude (CA)</text></g><g class="participant participant-tail" data-participant="llm"><rect fill="#FFFFFF" height="38" rx="4" ry="4" style="stroke:#1F2A37;stroke-width:0.5;" width="80.0234" x="864.4639" y="831"/><text fill="#1F2A37" font-family="Helvetica" font-size="12" lengthAdjust="spacing" textLength="49.3535" x="879.7988" y="847.2402">Vertex AI</text><text fill="#1F2A37" font-family="Helvetica" font-size="12" lengthAdjust="spacing" textLength="66.0234" x="871.4639" y="859.2402">Claude (CA)</text></g><g class="participant participant-head" data-participant="audit"><text fill="#000000" font-family="Helvetica" font-size="12" lengthAdjust="spacing" textLength="50.707" x="954.4873" y="109.2402">Audit Log</text><path d="M964.8408,64 C964.8408,54 982.8408,54 982.8408,54 C982.8408,54 1000.8408,54 1000.8408,64 L1000.8408,90 C1000.8408,100 982.8408,100 982.8408,100 C982.8408,100 964.8408,100 964.8408,90 L964.8408,64" fill="#F0FDFA" style="stroke:#181818;stroke-width:0.5;"/><path d="M964.8408,64 C964.8408,74 982.8408,74 982.8408,74 C982.8408,74 1000.8408,74 1000.8408,64" fill="none" style="stroke:#181818;stroke-width:0.5;"/></g><g class="participant participant-tail" data-participant="audit"><text fill="#000000" font-family="Helvetica" font-size="12" lengthAdjust="spacing" textLength="50.707" x="954.4873" y="840.2402">Audit Log</text><path d="M964.8408,853 C964.8408,843 982.8408,843 982.8408,843 C982.8408,843 1000.8408,843 1000.8408,853 L1000.8408,879 C1000.8408,889 982.8408,889 982.8408,889 C982.8408,889 964.8408,889 964.8408,879 L964.8408,853" fill="#F0FDFA" style="stroke:#181818;stroke-width:0.5;"/><path d="M964.8408,853 C964.8408,863 982.8408,863 982.8408,863 C982.8408,863 1000.8408,863 1000.8408,853" fill="none" style="stroke:#181818;stroke-width:0.5;"/></g><g class="participant participant-head" data-participant="cache"><text fill="#000000" font-family="Helvetica" font-size="12" lengthAdjust="spacing" textLength="30.6797" x="1021.1943" y="109.2402">Redis</text><path d="M1021.5342,64 C1021.5342,54 1039.5342,54 1039.5342,54 C1039.5342,54 1057.5342,54 1057.5342,64 L1057.5342,90 C1057.5342,100 1039.5342,100 1039.5342,100 C1039.5342,100 1021.5342,100 1021.5342,90 L1021.5342,64" fill="#F0FDFA" style="stroke:#181818;stroke-width:0.5;"/><path d="M1021.5342,64 C1021.5342,74 1039.5342,74 1039.5342,74 C1039.5342,74 1057.5342,74 1057.5342,64" fill="none" style="stroke:#181818;stroke-width:0.5;"/></g><g class="participant participant-tail" data-participant="cache"><text fill="#000000" font-family="Helvetica" font-size="12" lengthAdjust="spacing" textLength="30.6797" x="1021.1943" y="840.2402">Redis</text><path d="M1021.5342,853 C1021.5342,843 1039.5342,843 1039.5342,843 C1039.5342,843 1057.5342,843 1057.5342,853 L1057.5342,879 C1057.5342,889 1039.5342,889 1039.5342,889 C1039.5342,889 1021.5342,889 1021.5342,879 L1021.5342,853" fill="#F0FDFA" style="stroke:#181818;stroke-width:0.5;"/><path d="M1021.5342,853 C1021.5342,863 1039.5342,863 1039.5342,863 C1039.5342,863 1057.5342,863 1057.5342,853" fill="none" style="stroke:#181818;stroke-width:0.5;"/></g><g><title>API Gateway</title><rect fill="#F9FAFB" height="642" style="stroke:#D1D5DB;stroke-width:1;" width="10" x="265.9482" y="172"/></g><g><title>RAG Engine</title><rect fill="#F9FAFB" height="330" style="stroke:#D1D5DB;stroke-width:1;" width="10" x="486.2393" y="361"/></g><g class="message" data-participant-1="user" data-participant-2="web"><polygon fill="#4B5563" points="147.165,144,157.165,148,147.165,152,151.165,148" style="stroke:#4B5563;stroke-width:1;"/><line style="stroke:#4B5563;stroke-width:1.4;" x1="29.3398" x2="153.165" y1="148" y2="148"/><text fill="#4B5563" font-family="Helvetica" font-size="10" lengthAdjust="spacing" textLength="71.3721" x="36.3398" y="133.7002">"Quel d&#233;lai pour</text><text fill="#4B5563" font-family="Helvetica" font-size="10" lengthAdjust="spacing" textLength="105.8252" x="36.3398" y="143.7002">r&#233;tractation apr&#232;s PA ?"</text></g><g class="message" data-participant-1="web" data-participant-2="api"><polygon fill="#4B5563" points="253.9482,168,263.9482,172,253.9482,176,257.9482,172" style="stroke:#4B5563;stroke-width:1;"/><line style="stroke:#4B5563;stroke-width:1.4;" x1="159.165" x2="259.9482" y1="172" y2="172"/><text fill="#4B5563" font-family="Helvetica" font-size="10" lengthAdjust="spacing" textLength="87.7832" x="166.165" y="167.7002">POST /query (JWT)</text></g><g class="message" data-participant-1="api" data-participant-2="cache"><polygon fill="#4B5563" points="1027.5342,192,1037.5342,196,1027.5342,200,1031.5342,196" style="stroke:#4B5563;stroke-width:1;"/><line style="stroke:#4B5563;stroke-width:1.4;" x1="275.9482" x2="1033.5342" y1="196" y2="196"/><text fill="#4B5563" font-family="Helvetica" font-size="10" lengthAdjust="spacing" textLength="76.6943" x="282.9482" y="191.7002">GET hash(query)</text></g><path d="M121.4854,211 L176.4893,211 L176.4893,215 L166.4893,225 L117.4854,225 L117.4854,215 A4,4 0 0 1 121.4854,211" fill="#F0FDFA" style="stroke:#2DD4BF;stroke-width:1.5;"/><rect fill="none" height="570" rx="4" ry="4" style="stroke:#2DD4BF;stroke-width:1.5;" width="950.3887" x="117.4854" y="211"/><text fill="#000000" font-family="Helvetica" font-size="12" font-weight="bold" lengthAdjust="spacing" textLength="14.0039" x="132.4854" y="221.2402">alt</text><text fill="#0F766E" font-family="Helvetica" font-size="12" font-weight="bold" lengthAdjust="spacing" textLength="60.0117" x="191.4893" y="222.2402">[cache hit]</text><g class="message" data-participant-1="cache" data-participant-2="api"><polygon fill="#0F766E" points="286.9482,237,276.9482,241,286.9482,245,282.9482,241" style="stroke:#0F766E;stroke-width:1;"/><line style="stroke:#0F766E;stroke-width:1.4;stroke-dasharray:2,2;" x1="280.9482" x2="1038.5342" y1="241" y2="241"/><text fill="#4B5563" font-family="Helvetica" font-size="10" lengthAdjust="spacing" textLength="76.1621" x="292.9482" y="236.7002">cached response</text></g><g class="message" data-participant-1="api" data-participant-2="web"><polygon fill="#4B5563" points="170.165,261,160.165,265,170.165,269,166.165,265" style="stroke:#4B5563;stroke-width:1;"/><line style="stroke:#4B5563;stroke-width:1.4;" x1="164.165" x2="264.9482" y1="265" y2="265"/><text fill="#4B5563" font-family="Helvetica" font-size="10" lengthAdjust="spacing" textLength="58.3691" x="176.165" y="260.7002">200 (cached)</text></g><line style="stroke:#2DD4BF;stroke-width:1;stroke-dasharray:2,2;" x1="117.4854" x2="1067.874" y1="274" y2="274"/><text fill="#0F766E" font-family="Helvetica" font-size="12" font-weight="bold" lengthAdjust="spacing" textLength="72.7031" x="122.4854" y="283.2402">[cache miss]</text><g class="message" data-participant-1="api" data-participant-2="pii"><polygon fill="#4B5563" points="388.5391,299,398.5391,303,388.5391,307,392.5391,303" style="stroke:#4B5563;stroke-width:1;"/><line style="stroke:#4B5563;stroke-width:1.4;" x1="275.9482" x2="394.5391" y1="303" y2="303"/><text fill="#4B5563" font-family="Helvetica" font-size="10" lengthAdjust="spacing" textLength="59.4678" x="282.9482" y="298.7002">redact(query)</text></g><g class="message" data-participant-1="pii" data-participant-2="api"><polygon fill="#0F766E" points="286.9482,333,276.9482,337,286.9482,341,282.9482,337" style="stroke:#0F766E;stroke-width:1;"/><line style="stroke:#0F766E;stroke-width:1.4;stroke-dasharray:2,2;" x1="280.9482" x2="399.5391" y1="337" y2="337"/><text fill="#4B5563" font-family="Helvetica" font-size="10" lengthAdjust="spacing" textLength="60.4639" x="292.9482" y="322.7002">"Quel d&#233;lai..."</text><text fill="#4B5563" font-family="Helvetica" font-size="10" lengthAdjust="spacing" textLength="100.5908" x="292.9482" y="332.7002">(noms client masqu&#233;s)</text></g><g class="message" data-participant-1="api" data-participant-2="rag"><polygon fill="#4B5563" points="474.2393,357,484.2393,361,474.2393,365,478.2393,361" style="stroke:#4B5563;stroke-width:1;"/><line style="stroke:#4B5563;stroke-width:1.4;" x1="275.9482" x2="480.2393" y1="361" y2="361"/><text fill="#4B5563" font-family="Helvetica" font-size="10" lengthAdjust="spacing" textLength="66.6895" x="282.9482" y="356.7002">process(query)</text></g><g class="message" data-participant-1="rag" data-participant-2="rag"><line style="stroke:#4B5563;stroke-width:1.4;" x1="496.2393" x2="538.2393" y1="395" y2="395"/><line style="stroke:#4B5563;stroke-width:1.4;" x1="538.2393" x2="538.2393" y1="395" y2="408"/><line style="stroke:#4B5563;stroke-width:1.4;" x1="497.2393" x2="538.2393" y1="408" y2="408"/><polygon fill="#4B5563" points="507.2393,404,497.2393,408,507.2393,412,503.2393,408" style="stroke:#4B5563;stroke-width:1;"/><text fill="#4B5563" font-family="Helvetica" font-size="10" lengthAdjust="spacing" textLength="61.709" x="503.2393" y="380.7002">analyze intent</text><text fill="#4B5563" font-family="Helvetica" font-size="10" lengthAdjust="spacing" textLength="64.3457" x="503.2393" y="390.7002">&#8594; "regulatory"</text></g><g class="message" data-participant-1="rag" data-participant-2="vector"><polygon fill="#4B5563" points="634.4063,438,644.4063,442,634.4063,446,638.4063,442" style="stroke:#4B5563;stroke-width:1;"/><line style="stroke:#4B5563;stroke-width:1.4;" x1="496.2393" x2="640.4063" y1="442" y2="442"/><text fill="#4B5563" font-family="Helvetica" font-size="10" lengthAdjust="spacing" textLength="60.0293" x="503.2393" y="427.7002">hybrid search</text><text fill="#4B5563" font-family="Helvetica" font-size="10" lengthAdjust="spacing" textLength="81.4307" x="503.2393" y="437.7002">(intent=regulatory)</text></g><g class="message" data-participant-1="vector" data-participant-2="rag"><polygon fill="#1F2A37" points="507.2393,472,497.2393,476,507.2393,480,503.2393,476" style="stroke:#1F2A37;stroke-width:1;"/><line style="stroke:#1F2A37;stroke-width:1.4;stroke-dasharray:2,2;" x1="501.2393" x2="645.4063" y1="476" y2="476"/><text fill="#4B5563" font-family="Helvetica" font-size="10" lengthAdjust="spacing" textLength="62.8174" x="513.2393" y="461.7002">top-10 chunks</text><text fill="#4B5563" font-family="Helvetica" font-size="10" lengthAdjust="spacing" textLength="126.167" x="513.2393" y="471.7002">(Loi courtage, Code OACIQ)</text></g><g class="message" data-participant-1="rag" data-participant-2="registry"><polygon fill="#4B5563" points="699.4238,496,709.4238,500,699.4238,504,703.4238,500" style="stroke:#4B5563;stroke-width:1;"/><line style="stroke:#4B5563;stroke-width:1.4;" x1="496.2393" x2="705.4238" y1="500" y2="500"/><text fill="#4B5563" font-family="Helvetica" font-size="10" lengthAdjust="spacing" textLength="116.333" x="503.2393" y="495.7002">get("regulatory_qa", v=12)</text></g><g class="message" data-participant-1="registry" data-participant-2="rag"><polygon fill="#0F766E" points="507.2393,520,497.2393,524,507.2393,528,503.2393,524" style="stroke:#0F766E;stroke-width:1;"/><line style="stroke:#0F766E;stroke-width:1.4;stroke-dasharray:2,2;" x1="501.2393" x2="710.4238" y1="524" y2="524"/><text fill="#4B5563" font-family="Helvetica" font-size="10" lengthAdjust="spacing" textLength="65.5713" x="513.2393" y="519.7002">system prompt</text></g><g class="message" data-participant-1="rag" data-participant-2="router"><polygon fill="#4B5563" points="776.7764,544,786.7764,548,776.7764,552,780.7764,548" style="stroke:#4B5563;stroke-width:1;"/><line style="stroke:#4B5563;stroke-width:1.4;" x1="496.2393" x2="782.7764" y1="548" y2="548"/><text fill="#4B5563" font-family="Helvetica" font-size="10" lengthAdjust="spacing" textLength="123.9404" x="503.2393" y="543.7002">completion(prompt, context)</text></g><g class="message" data-participant-1="router" data-participant-2="llm"><polygon fill="#4B5563" points="892.4756,568,902.4756,572,892.4756,576,896.4756,572" style="stroke:#4B5563;stroke-width:1;"/><line style="stroke:#4B5563;stroke-width:1.4;" x1="788.7764" x2="898.4756" y1="572" y2="572"/><text fill="#4B5563" font-family="Helvetica" font-size="10" lengthAdjust="spacing" textLength="91.6992" x="795.7764" y="567.7002">POST /v1/messages</text></g><g class="message" data-participant-1="llm" data-participant-2="router"><polygon fill="#1F2A37" points="799.7764,592,789.7764,596,799.7764,600,795.7764,596" style="stroke:#1F2A37;stroke-width:1;"/><line style="stroke:#1F2A37;stroke-width:1.4;stroke-dasharray:2,2;" x1="793.7764" x2="903.4756" y1="596" y2="596"/><text fill="#4B5563" font-family="Helvetica" font-size="10" lengthAdjust="spacing" textLength="70.3174" x="805.7764" y="591.7002">answer + spans</text></g><g class="message" data-participant-1="router" data-participant-2="rag"><polygon fill="#0F766E" points="507.2393,616,497.2393,620,507.2393,624,503.2393,620" style="stroke:#0F766E;stroke-width:1;"/><line style="stroke:#0F766E;stroke-width:1.4;stroke-dasharray:2,2;" x1="501.2393" x2="787.7764" y1="620" y2="620"/><text fill="#4B5563" font-family="Helvetica" font-size="10" lengthAdjust="spacing" textLength="73.9258" x="513.2393" y="615.7002">streamed tokens</text></g><g class="message" data-participant-1="rag" data-participant-2="rag"><line style="stroke:#4B5563;stroke-width:1.4;" x1="496.2393" x2="538.2393" y1="654" y2="654"/><line style="stroke:#4B5563;stroke-width:1.4;" x1="538.2393" x2="538.2393" y1="654" y2="667"/><line style="stroke:#4B5563;stroke-width:1.4;" x1="497.2393" x2="538.2393" y1="667" y2="667"/><polygon fill="#4B5563" points="507.2393,663,497.2393,667,507.2393,671,503.2393,667" style="stroke:#4B5563;stroke-width:1;"/><text fill="#4B5563" font-family="Helvetica" font-size="10" lengthAdjust="spacing" textLength="71.6992" x="503.2393" y="639.7002">resolve citations</text><text fill="#4B5563" font-family="Helvetica" font-size="10" lengthAdjust="spacing" textLength="69.4824" x="503.2393" y="649.7002">validate answer</text></g><g class="message" data-participant-1="rag" data-participant-2="api"><polygon fill="#1F2A37" points="286.9482,687,276.9482,691,286.9482,695,282.9482,691" style="stroke:#1F2A37;stroke-width:1;"/><line style="stroke:#1F2A37;stroke-width:1.4;stroke-dasharray:2,2;" x1="280.9482" x2="490.2393" y1="691" y2="691"/><text fill="#4B5563" font-family="Helvetica" font-size="10" lengthAdjust="spacing" textLength="78.6475" x="292.9482" y="686.7002">answer + sources</text></g><g class="message" data-participant-1="api" data-participant-2="audit"><polygon fill="#4B5563" points="970.8408,721,980.8408,725,970.8408,729,974.8408,725" style="stroke:#4B5563;stroke-width:1;"/><line style="stroke:#4B5563;stroke-width:1.4;" x1="275.9482" x2="976.8408" y1="725" y2="725"/><text fill="#4B5563" font-family="Helvetica" font-size="10" lengthAdjust="spacing" textLength="78.3643" x="282.9482" y="710.7002">trace(user, query,</text><text fill="#4B5563" font-family="Helvetica" font-size="10" lengthAdjust="spacing" textLength="85.0391" x="282.9482" y="720.7002">response, sources)</text></g><g class="message" data-participant-1="api" data-participant-2="cache"><polygon fill="#4B5563" points="1027.5342,745,1037.5342,749,1027.5342,753,1031.5342,749" style="stroke:#4B5563;stroke-width:1;"/><line style="stroke:#4B5563;stroke-width:1.4;" x1="275.9482" x2="1033.5342" y1="749" y2="749"/><text fill="#4B5563" font-family="Helvetica" font-size="10" lengthAdjust="spacing" textLength="118.667" x="282.9482" y="744.7002">SET hash(query) TTL=24h</text></g><g class="message" data-participant-1="api" data-participant-2="web"><polygon fill="#1F2A37" points="170.165,769,160.165,773,170.165,777,166.165,773" style="stroke:#1F2A37;stroke-width:1;"/><line style="stroke:#1F2A37;stroke-width:1.4;stroke-dasharray:2,2;" x1="164.165" x2="264.9482" y1="773" y2="773"/><text fill="#4B5563" font-family="Helvetica" font-size="10" lengthAdjust="spacing" textLength="67.2607" x="176.165" y="768.7002">200 (response)</text></g><g class="message" data-participant-1="web" data-participant-2="user"><polygon fill="#1F2A37" points="40.3398,810,30.3398,814,40.3398,818,36.3398,814" style="stroke:#1F2A37;stroke-width:1;"/><line style="stroke:#1F2A37;stroke-width:1.4;stroke-dasharray:2,2;" x1="34.3398" x2="158.165" y1="814" y2="814"/><text fill="#4B5563" font-family="Helvetica" font-size="10" lengthAdjust="spacing" textLength="88.1104" x="46.3398" y="799.7002">R&#233;ponse + citations</text><text fill="#4B5563" font-family="Helvetica" font-size="10" lengthAdjust="spacing" textLength="44.4727" x="46.3398" y="809.7002">cliquables</text></g><!--SRC=[XLLTRY9747wVKvJ8Gq31Nc1jRsB9YSPWl4GawyKe-n2lecQcpBGyT8-xUs1952bFEK2KGuHpS9CzIMgwXw7748MdOUgh-khdgnh3JOfmlzqyvoWYXCz__0tlSzI6Im5gkvcdk41X65S8yPUvW4Zcod1KGQ2VkCYOOWkOiUXfhcGkuhvCfO8lXlRd8M9yP7bgXbAO7za2uIscIpGyOiSnz_nNX6xFC-g4nNB5nHmUMQhHiuHAoLN9UtPzVdxn-gMnYFY_04VPyIdHzSH2fWcFdWHg3TtJCmzKLgq4AlWwI7YCe0qgb6QTON0a6lmM0Dmnwc74CoRCzN_qhWwIAaPL0hh3NlZwJHtWbLYPn_mHnrpW8SCtmt1uxIFyy8Fku7nGMCF8I7NWN8MtPe-tojlv7StubY9bDLDlC3Yx7kvCNhZEyCt5nKtbSr13PpWOXi7lGS0AEcZqIrqsW6d8DGaqsxS76c6MmGUSMUiAPo-CToEuPGPNR6q1BEDrmDre11ECBPL5P9nNETIGa_0MRiISccfnYis3c1asOngXaSsNM8LmZozub5nava5CSCwrKIuRLVuvJZWU_m0JcPkoScKVZqD_GcNm4uIZ1z5FMKvIRVR3bdLBquMNPvZ7tC1OpbqtxBzTn3sA6iArHKGiIh1214NtuUJReizm2Gqw9od4sqtAE6GqfGT1TyKeQYQpLuPbQlkFXhiGlci4XG-vqWJ8zUxT_HHUqTvGyStlFqnRnR3vaYPbHnGKA08x-akulPb2mdJIj1u4JarfIxWX9K7vx-JdKbqVAoPhYAdLEfE2pai1BgExAdgT3ZGTgXKWNQ0ore9hxQCBOLnId48hkpmAS_7-2A_VdDFJqyQ3Q0gve8wcdAukB9X-phSRtGfy3X8LkMPAHdIFV9AgEuNix9i2MdammT8rNJak30L_49___0iQfAuyPQJ4TSFtSEeafsGzKpocyyLKb51wplbgx-QeIpoLw9RzOyLgP7RIxK2KvE99Ku2nvEuZmkROXhua6RuB-wFthNh6Ez5VmXnDqqlpbsVMQCFogjjpp1Morbx7hTTqZ1T5gsYjwl7Tdj3aoPHY8SIcWxNf5TNuoPJX7P1SQ4SgJIwxhnRKV2h1JR-mrMlVnMT2h-ZXAz2qXBeMyaY-HY5z7cDgsXCI-d26f519dqw8kDiUwkYIfJosEs6fzZv-Favk-sHe0AGUHn3ZeN1AgRdTfo7IkcApMEmsMC6rQOlBPMdlehLypzrItjUN4gRJyLNlBDb3_IozNTj5fsqJSU3kWW-rH-OI9jkDXL5DNajeVPvpDakfGg-uucRy2m00]--></g></svg>